<svg width="59" height="258" viewBox="0 0 59 258" fill="none" xmlns="http://www.w3.org/2000/svg">
<rect x="-20.7181" width="59.0018" height="81.1275" rx="12" fill="#735995"/>
<rect x="-20.7181" y="81" width="59.0018" height="81.1275" rx="12" fill="#584475"/>
<rect x="-20.7181" y="161.75" width="59.0018" height="81.1275" rx="12" fill="#452D67"/>
<path d="M15.5012 190C11.8348 190 11.3746 190.016 9.9347 190.082C8.49749 190.147 7.51644 190.375 6.65811 190.709C5.77008 191.054 5.01692 191.515 4.26659 192.265C3.51558 193.016 3.05429 193.769 2.70842 194.657C2.37362 195.515 2.14587 196.497 2.08121 197.933C2.01681 199.373 1.99994 199.834 1.99994 203.5C1.99994 207.166 2.01614 207.625 2.08148 209.065C2.14763 210.502 2.3751 211.483 2.70869 212.342C3.05375 213.23 3.51504 213.983 4.26564 214.733C5.01584 215.484 5.769 215.946 6.65636 216.291C7.51536 216.625 8.49654 216.853 9.93348 216.918C11.3735 216.984 11.8333 217 15.4995 217C19.1663 217 19.625 216.984 21.0649 216.918C22.5021 216.853 23.4842 216.625 24.3433 216.291C25.2309 215.946 25.983 215.484 26.733 214.733C27.484 213.983 27.9452 213.23 28.2912 212.342C28.623 211.483 28.8509 210.502 28.9184 209.065C28.9831 207.625 28.9999 207.166 28.9999 203.5C28.9999 199.834 28.9831 199.373 28.9184 197.933C28.8509 196.496 28.623 195.515 28.2912 194.657C27.9452 193.769 27.484 193.016 26.733 192.265C25.9821 191.515 25.2311 191.053 24.3424 190.709C23.4818 190.375 22.5002 190.147 21.063 190.082C19.623 190.016 19.1645 190 15.497 190L15.5012 190ZM14.2901 192.433C14.6496 192.432 15.0507 192.433 15.5012 192.433C19.1058 192.433 19.5329 192.446 20.9564 192.51C22.2726 192.571 22.987 192.791 23.4629 192.975C24.093 193.22 24.5421 193.513 25.0143 193.985C25.4868 194.458 25.7792 194.908 26.0245 195.538C26.2094 196.013 26.4295 196.727 26.4895 198.043C26.5541 199.467 26.5682 199.894 26.5682 203.497C26.5682 207.1 26.5541 207.527 26.4895 208.95C26.4293 210.267 26.2094 210.981 26.0245 211.456C25.7799 212.086 25.4868 212.535 25.0143 213.007C24.5418 213.48 24.0932 213.772 23.4629 214.017C22.9876 214.202 22.2726 214.422 20.9564 214.482C19.5332 214.547 19.1058 214.561 15.5012 214.561C11.8964 214.561 11.4691 214.547 10.0461 214.482C8.72982 214.421 8.0154 214.201 7.53912 214.017C6.90921 213.772 6.45912 213.479 5.98662 213.007C5.51412 212.534 5.22171 212.086 4.97642 211.455C4.7916 210.98 4.57142 210.265 4.51148 208.949C4.44681 207.526 4.43385 207.099 4.43385 203.494C4.43385 199.889 4.44681 199.463 4.51148 198.04C4.57169 196.724 4.7916 196.009 4.97642 195.534C5.22117 194.904 5.51412 194.454 5.98676 193.981C6.45926 193.509 6.90921 193.216 7.53926 192.971C8.01513 192.785 8.72982 192.566 10.0461 192.505C11.2914 192.449 11.7741 192.432 14.2901 192.429L14.2901 192.433ZM22.7075 194.674C21.8131 194.674 21.0875 195.399 21.0875 196.294C21.0875 197.188 21.8131 197.914 22.7075 197.914C23.6018 197.914 24.3275 197.188 24.3275 196.294C24.3275 195.399 23.6018 194.674 22.7075 194.674L22.7075 194.674ZM15.5012 196.567C11.6726 196.567 8.56836 199.671 8.56836 203.5C8.56836 207.329 11.6726 210.431 15.5012 210.431C19.3299 210.431 22.433 207.329 22.433 203.5C22.433 199.671 19.3296 196.567 15.5009 196.567L15.5012 196.567ZM15.5012 199C17.9864 199 20.0012 201.015 20.0012 203.5C20.0012 205.985 17.9864 208 15.5012 208C13.0158 208 11.0012 205.985 11.0012 203.5C11.0012 201.015 13.0158 199 15.5012 199Z" fill="white"/>
<path fill-rule="evenodd" clip-rule="evenodd" d="M18.1767 136C18.0974 136 18.0216 135.996 17.9644 135.994C17.9177 135.997 17.8711 136 17.8244 136C16.1561 136 15.0419 135.13 14.0584 134.363C13.3537 133.813 12.6887 133.295 11.9094 133.152C11.5354 133.083 11.1569 133.047 10.7777 133.046C10.1162 133.046 9.59237 133.159 9.2097 133.242C8.9752 133.292 8.7722 133.336 8.6147 133.336C8.45136 133.336 8.25186 133.296 8.16786 132.982C8.10737 132.745 8.05445 132.506 8.00919 132.265C7.89486 131.69 7.81203 131.338 7.61719 131.305C5.52651 130.948 4.29101 130.424 4.04484 129.789C4.01959 129.726 4.00459 129.658 4.00051 129.589C3.99596 129.498 4.02216 129.408 4.07406 129.337C4.12595 129.265 4.1999 129.218 4.28167 129.203C5.94185 128.901 7.41886 127.933 8.6707 126.324C9.28088 125.545 9.78762 124.675 10.1757 123.739C10.416 123.199 10.4639 122.733 10.318 122.352C10.0485 121.652 9.15603 121.339 8.5657 121.132C8.43202 121.087 8.29973 121.038 8.16903 120.984C7.64636 120.756 6.78535 120.275 6.89969 119.609C6.98369 119.124 7.56469 118.786 8.03486 118.786C8.16553 118.786 8.28103 118.811 8.37786 118.863C8.90986 119.137 9.38703 119.276 9.7977 119.276C10.3087 119.276 10.556 119.061 10.6144 119.001C10.5994 118.693 10.583 118.385 10.5654 118.078C10.4452 115.972 10.2959 113.354 10.9037 111.851C12.7191 107.355 16.5737 107.006 17.7112 107.006C17.8995 107.004 18.0877 107.002 18.2759 107C19.4169 107 23.2798 107.35 25.0986 111.848C25.7053 113.352 25.5559 115.973 25.4358 118.08L25.4299 118.181C25.414 118.454 25.3992 118.727 25.3856 119.001C25.4416 119.057 25.668 119.254 26.1265 119.273C26.5185 119.257 26.9688 119.119 27.4646 118.862C27.6027 118.796 27.7518 118.763 27.9021 118.766C28.0771 118.766 28.2533 118.805 28.4015 118.872L28.4096 118.876C28.8296 119.04 29.105 119.37 29.1108 119.715C29.1166 120.037 28.8996 120.519 27.831 120.984C27.7002 121.038 27.5679 121.088 27.4343 121.133C26.844 121.339 25.9526 121.652 25.6831 122.352C25.5361 122.732 25.5851 123.199 25.8266 123.738L25.8336 123.756C25.9083 123.949 27.7061 128.473 31.7195 129.202C31.801 129.217 31.8747 129.265 31.9264 129.336C31.978 129.407 32.0041 129.497 31.9995 129.588C31.9956 129.658 31.9806 129.726 31.9552 129.79C31.7113 130.422 30.4758 130.946 28.3851 131.302C28.188 131.336 28.1051 131.686 27.992 132.259C27.9453 132.495 27.8986 132.727 27.8333 132.97C27.7715 133.201 27.6361 133.313 27.4191 133.313H27.3865C27.1862 133.305 26.9871 133.277 26.7915 133.229C26.2753 133.11 25.7496 133.049 25.2223 133.046C24.8548 133.046 24.4756 133.081 24.0906 133.152C23.3136 133.293 22.6486 133.812 21.9439 134.362C20.9593 135.13 19.8439 136 18.1767 136Z" fill="white"/>
<path d="M25.5464 44.6026C25.1922 44.4368 23.4273 43.649 23.099 43.5424C22.7707 43.4299 22.5302 43.3766 22.293 43.7083C22.0524 44.037 21.3699 44.7684 21.1554 44.9905C20.9474 45.2097 20.7361 45.2363 20.3818 45.0734C18.2757 44.114 16.8943 43.3618 15.5065 41.1911C15.1392 40.6137 15.8738 40.6551 16.5596 39.4084C16.6766 39.1893 16.6181 39.0027 16.5271 38.8369C16.4361 38.671 15.721 37.066 15.422 36.4115C15.1327 35.7748 14.8337 35.8637 14.6159 35.8518C14.4079 35.84 14.1706 35.84 13.9301 35.84C13.6896 35.84 13.3028 35.9229 12.9746 36.2457C12.6463 36.5744 11.72 37.3651 11.72 38.9701C11.72 40.5752 13.0038 42.1299 13.1793 42.349C13.3613 42.5682 15.7048 45.8612 19.3028 47.2796C21.5779 48.174 22.4685 48.251 23.6061 48.097C24.2984 48.0022 25.7252 47.3093 26.021 46.5423C26.3167 45.7782 26.3167 45.1238 26.229 44.9876C26.1412 44.8425 25.9007 44.7595 25.5464 44.6026Z" fill="white"/>
<path d="M31.9123 36.575C31.2061 34.8969 30.1936 33.3906 28.903 32.0969C27.6124 30.8063 26.1062 29.7906 24.4249 29.0875C22.7062 28.3656 20.8812 28 19 28H18.9375C17.0438 28.0094 15.2094 28.3844 13.4844 29.1219C11.8188 29.8344 10.3251 30.8469 9.047 32.1375C7.76889 33.4281 6.76578 34.9281 6.07204 36.6C5.3533 38.3313 4.9908 40.1719 5.00018 42.0656C5.00955 44.2344 5.5283 46.3875 6.50016 48.3125V53.0625C6.50016 53.8563 7.1439 54.5 7.93764 54.5H12.6907C14.6157 55.4719 16.7688 55.9906 18.9375 56H19.0031C20.875 56 22.6906 55.6375 24.3999 54.9281C26.0718 54.2313 27.5749 53.2313 28.8624 51.9531C30.153 50.675 31.1686 49.1812 31.878 47.5156C32.6155 45.7906 32.9905 43.9563 32.9998 42.0625C33.0092 40.1594 32.6405 38.3125 31.9123 36.575ZM27.1905 50.2625C24.9999 52.4313 22.0937 53.625 19 53.625H18.9469C17.0625 53.6156 15.1907 53.1469 13.5376 52.2656L13.2751 52.125H8.87513V47.725L8.73451 47.4625C7.85327 45.8094 7.38452 43.9375 7.37515 42.0531C7.36265 38.9375 8.55326 36.0125 10.7376 33.8094C12.9188 31.6062 15.8344 30.3875 18.95 30.375H19.0031C20.5656 30.375 22.0812 30.6781 23.5093 31.2781C24.9031 31.8625 26.153 32.7031 27.228 33.7781C28.2999 34.85 29.1436 36.1031 29.728 37.4969C30.3342 38.9406 30.6374 40.4719 30.6311 42.0531C30.6124 45.1656 29.3905 48.0813 27.1905 50.2625Z" fill="white"/>
</svg>
