<svg width="119" height="85" viewBox="0 0 119 85" fill="none" xmlns="http://www.w3.org/2000/svg">
<g clip-path="url(#clip0_142_1745)">
<path d="M84.3745 35.0369C84.3745 35.0369 84.3745 35.0369 84.3745 35.0335C84.3593 34.6719 84.3324 34.3086 84.2953 33.942C83.3677 25.0416 74.6284 17.7226 65.5154 18.4075C62.1297 18.6624 59.069 19.7723 56.5185 21.4987C54.3888 22.9335 52.6177 24.7999 51.3096 26.9496C50.8011 27.7795 50.3651 28.6544 50.0048 29.5626C49.6361 30.4858 49.3482 31.444 49.1445 32.4306C49.0671 32.7988 49.0031 33.1688 48.9509 33.5437V33.5471C48.7927 34.6719 48.7455 35.8301 48.8179 37.0033C48.8432 37.3982 48.8785 37.7915 48.929 38.1764C49.8617 45.7037 55.2238 51.1696 61.7695 52.9844C61.7745 52.9861 61.7779 52.9861 61.7796 52.9861C63.5607 53.4793 65.4278 53.7026 67.3167 53.6243C70.0761 53.5193 72.657 52.7894 74.9331 51.5796H74.9348C74.9399 51.5763 74.9466 51.5729 74.9516 51.5713C78.0477 49.9198 80.5814 47.3852 82.2414 44.3189C82.7313 43.419 83.1438 42.4692 83.4738 41.4843C83.9957 39.9229 84.3088 38.2748 84.3778 36.57V36.5683C84.398 36.0634 84.398 35.5518 84.3745 35.0369ZM82.9367 41.8676C82.595 42.8175 82.1724 43.724 81.6774 44.5839C78.674 49.7815 72.9853 53.2177 66.3437 53.1977C64.1769 53.1894 62.1045 52.7778 60.1937 52.0295L60.1903 52.0262C54.5824 49.8398 50.3887 44.7789 49.4156 38.6764C49.2674 37.7565 49.195 36.8133 49.2001 35.8534C49.2034 35.1768 49.2489 34.5069 49.3331 33.8504V33.847C49.4072 33.2554 49.5132 32.6722 49.6496 32.1006C49.8095 31.4224 50.0132 30.7608 50.2557 30.1159C50.2557 30.1159 50.2557 30.1159 50.2557 30.1109C50.6143 29.146 51.0587 28.2195 51.5806 27.3429C53.1362 24.7299 55.372 22.5469 58.037 21.0438C60.5708 19.6123 63.4934 18.7958 66.5861 18.8058C76.0022 18.8374 83.6152 26.1914 83.9351 35.4135C83.9351 35.4151 83.9351 35.4185 83.9351 35.4185C83.9435 35.6268 83.9452 35.8351 83.9452 36.0467C83.9435 38.0998 83.5883 40.0578 82.9367 41.8676Z" fill="#FFFFFE"/>
<path d="M66.613 19.9089C64.0658 19.9006 61.6415 20.4889 59.4798 21.5387C56.3888 23.0368 53.8332 25.4782 52.2102 28.4678C51.9442 28.961 51.7035 29.4643 51.488 29.9842C51.3196 30.3925 51.1681 30.8091 51.0351 31.2324C50.9644 31.4557 50.8987 31.679 50.8381 31.9056C50.8381 31.9056 50.8381 31.9056 50.8381 31.9073C50.5957 32.8172 50.4307 33.7554 50.3566 34.7169V34.7202C50.3263 35.0952 50.3112 35.4735 50.3078 35.8567C50.3028 37.0532 50.4307 38.2231 50.6698 39.3463V39.3513C52.2422 46.6253 58.7155 52.1028 66.4665 52.1245C73.4785 52.1478 79.4534 47.8418 81.7969 41.7476C82.4468 40.0578 82.8172 38.2314 82.8508 36.3233C82.8559 36.2467 82.8559 36.1667 82.8559 36.09C82.9013 27.2029 75.6133 19.9406 66.613 19.9089ZM60.2475 23.6851C60.2475 23.6151 60.2492 23.5434 60.2509 23.4734C60.2576 23.2601 60.4697 22.9485 60.6701 22.8535C64.8537 20.9055 70.4633 21.2004 74.3489 23.9C72.6098 24.8416 70.9145 25.7615 69.2073 26.668C69.0525 26.7497 68.8285 26.7597 68.6501 26.7263C65.5086 26.1147 62.7072 26.8396 60.2323 28.8477C60.2323 28.0661 60.229 27.2996 60.229 26.5397C60.229 25.5798 60.2307 24.6316 60.2475 23.6851ZM72.7243 35.9951C72.7411 39.2796 69.9548 42.0742 66.6399 42.1009C63.3116 42.1242 60.4967 39.3913 60.4613 36.0984C60.4276 32.7505 63.1937 29.9725 66.581 29.9576C69.8942 29.9409 72.7091 32.7055 72.7243 35.9951ZM52.0924 34.5519C52.2995 32.8322 52.7405 31.2674 53.4089 29.8492C54.6834 27.1446 56.7844 24.9749 59.6717 23.2918C59.6717 24.4883 59.6751 25.6398 59.6734 26.7747C59.6717 27.5196 59.6684 28.2578 59.6599 28.9944C59.6549 29.2243 59.5488 29.4959 59.399 29.6693C57.3552 32.0639 56.6245 34.8069 57.17 38.0114C55.4898 36.9916 53.9089 36.0517 52.3449 35.0752C52.2018 34.9885 52.0739 34.7169 52.0924 34.5519ZM57.7861 47.4885C54.6834 45.1321 52.7843 42.0442 52.1968 38.2098C52.0587 37.3432 52.0267 36.46 51.9274 35.3418C53.8214 36.4833 55.5268 37.5082 57.2272 38.5447C57.3198 38.603 57.3703 38.7497 57.4107 38.8663C58.4461 41.8709 60.5051 43.8973 63.6634 45.0788C61.9193 46.0153 60.3653 46.8819 58.7744 47.6751C58.532 47.7968 58.0303 47.6784 57.7861 47.4885ZM72.8994 48.655C72.8977 48.8683 72.5778 49.1699 72.3354 49.2699C67.7107 51.163 63.2476 50.783 58.7441 48.215C59.4074 47.8551 59.9461 47.5618 60.4866 47.2685C61.2155 46.8769 61.9765 46.5319 62.6668 46.077C63.6466 45.4271 64.6315 45.3021 65.8217 45.4321C68.4817 45.7187 70.8522 44.8555 72.9263 43.1174C72.9263 45.0121 72.9448 46.8336 72.8994 48.655ZM81.0646 37.7165C81.068 37.8415 81.0545 37.9831 81.0275 38.1464C80.9855 38.4231 80.9046 38.7613 80.8036 39.1896C79.8659 43.1757 77.6049 46.2253 74.0981 48.3817C73.891 48.5083 73.6637 48.5983 73.4987 48.68C73.4987 46.6953 73.492 44.7472 73.5105 42.7958C73.5156 42.6091 73.6637 42.3925 73.7984 42.2342C75.7042 39.9728 76.4904 37.3982 76.0139 34.4719C76.0005 34.3819 76.0139 34.2886 76.0139 34.0303C77.2278 34.7536 78.3591 35.4218 79.4804 36.1017C80.6488 36.8099 81.0595 37.0532 81.0646 37.7148V37.7165ZM81.0831 36.5883C79.349 35.5368 77.7143 34.5569 76.0981 33.5521C75.9011 33.4287 75.7463 33.1921 75.6503 32.9705C74.2849 29.7676 72.8893 28.3544 69.6063 26.9546C70.5357 26.4497 71.3859 25.9881 72.231 25.5265C73.0711 25.0699 73.9129 24.615 74.7479 24.1617C78.546 26.1931 81.642 32.1706 81.0831 36.5883Z" fill="#FFFFFE"/>
<path d="M66.6046 30.3608C63.4362 30.3708 60.8772 32.9021 60.8687 36.0251C60.8586 39.128 63.4446 41.6726 66.613 41.6809C69.7242 41.6926 72.3017 39.108 72.3118 35.9701C72.3219 32.9588 69.667 30.3475 66.6046 30.3608ZM66.0457 34.9435C65.6012 35.2502 65.5137 36.0667 65.2342 36.7416C64.2729 36.6883 63.4463 35.7401 63.5136 34.4853C63.5776 33.2654 64.618 32.3339 65.879 32.3772C67.1837 32.4172 68.0423 33.3971 68.0423 34.6786C67.3487 34.7469 66.5339 34.6069 66.0457 34.9435ZM69.9582 38.2497C69.8825 38.6397 69.3589 39.1463 68.9599 39.2296C68.3235 39.3613 67.9413 38.8763 67.8774 37.8965C68.1417 37.7198 68.507 37.2849 68.9296 37.2216C69.5845 37.1232 70.0794 37.6398 69.9582 38.2497Z" fill="#FFFFFE"/>
<path d="M32.2012 59.6252L38.033 71.0119L43.811 59.6252H48.4929V78.1609H44.6948V65.636L39.3715 76.2812H36.6424L31.2921 65.636V78.1609H27.494V59.6252H32.2012Z" fill="#FFFFFE"/>
<path d="M57.3484 59.6252L63.1802 71.0119L68.9581 59.6252H73.6401V78.1609H69.842V65.636L64.5186 76.2812H61.7896L56.4393 65.636V78.1609H52.6412V59.6252H57.3484Z" fill="#FFFFFE"/>
<path d="M94.7451 59.6252V78.1609H90.8932L81.8239 66.2459V78.1609H77.785V59.6252H81.637L90.7332 71.5935V59.6252H94.7451Z" fill="#FFFFFE"/>
<path d="M87.8139 10.0669C87.7988 10.2119 87.782 10.3569 87.7668 10.5019C87.2415 11.0335 86.8981 11.0235 86.4115 10.4386C83.5562 7.01736 80.0511 4.49937 75.849 2.94459C73.2226 1.97139 70.5054 1.46812 67.7006 1.3948C63.0759 1.27148 58.7458 2.333 54.7356 4.61102C53.6648 5.21927 52.68 5.96917 51.6496 6.64908C51.4897 6.75406 51.3196 6.87905 51.1378 6.91071C50.8213 6.96903 50.5604 6.82905 50.4223 6.52576C50.2758 6.20414 50.3718 5.92251 50.6328 5.71087C50.9813 5.42591 51.3432 5.15428 51.7136 4.89432C54.2574 3.09623 56.9865 1.78641 59.899 0.974857H59.9024C61.4714 0.536584 63.0927 0.244957 64.7678 0.0999769C67.2342 -0.11666 69.6855 0.0283201 72.1182 0.499922C74.8472 1.02985 77.3675 1.91806 79.6858 3.16789C79.6891 3.16789 79.6891 3.16789 79.6908 3.16789C82.2818 4.5627 84.6169 6.40244 86.7028 8.67713C87.1001 9.11207 87.4436 9.60201 87.8139 10.0669Z" fill="#FFFFFE"/>
<path d="M82.999 14.308C82.7246 14.4613 82.4451 14.458 82.2212 14.2347C81.8727 13.8781 81.5528 13.4948 81.2128 13.1299C78.6251 10.3602 75.4803 8.47549 71.7815 7.60228C65.7982 6.19247 60.2997 7.30732 55.3484 10.9585C55.2019 11.0668 55.0555 11.1801 54.8938 11.2618C54.6009 11.4101 54.2659 11.3218 54.0689 11.0718C53.8803 10.8285 53.882 10.4786 54.084 10.2336C54.1447 10.1603 54.217 10.0919 54.2945 10.0336C57.7155 7.39731 61.5826 5.91584 65.9211 5.70087C67.0693 5.64255 68.2191 5.69754 68.8909 5.70087C74.8961 6.47077 79.4787 8.8821 83.0512 13.1332C83.1707 13.2782 83.2886 13.4548 83.3256 13.6348C83.3829 13.9114 83.265 14.158 82.999 14.308Z" fill="#FFFFFE"/>
<path d="M78.6554 17.7609C78.349 18.0275 77.9904 17.9875 77.647 17.6609C76.8086 16.8644 76.0173 16.0128 75.1149 15.2962C73.7058 14.1731 72.0694 13.4665 70.3084 13.0566C67.0541 12.2967 63.9143 12.6299 60.9276 14.1264C60.2441 14.4697 59.6195 14.9296 58.968 15.3396C58.8131 15.4379 58.67 15.5562 58.5101 15.6429C58.1767 15.8228 57.8417 15.7512 57.6279 15.4662C57.4141 15.1863 57.441 14.7863 57.734 14.5513C58.1128 14.2464 58.5067 13.9498 58.9158 13.6898C61.224 12.235 63.7324 11.3934 66.4817 11.3251C67.2275 11.3035 67.9733 11.3351 68.3858 11.3401C72.7495 11.8751 76.0796 13.6548 78.6756 16.7544C78.9652 17.0993 78.9517 17.5043 78.6554 17.7609Z" fill="#FFFFFE"/>
<path d="M31.0817 84.8984C31.0699 84.3518 31.0413 83.7752 30.9975 83.1686C30.9537 82.562 30.9268 82.2254 30.9184 82.1587C30.91 82.0921 30.9049 82.0237 30.9015 81.9538H30.8948L30.3578 83.2152C30.0463 83.9535 29.8628 84.4068 29.8072 84.5751C29.7517 84.7434 29.7247 84.8517 29.7247 84.8984H29.5429C29.5429 84.8034 29.452 84.5134 29.2719 84.0268C29.0917 83.5402 28.9166 83.0636 28.7483 82.597C28.5799 82.1287 28.484 81.8754 28.4604 81.8354H28.4452C28.4368 82.2654 28.3914 82.8436 28.3089 83.5685C28.2264 84.2934 28.1843 84.7367 28.1843 84.8984H27.952C27.9789 84.7634 28.0412 84.2951 28.1372 83.4919C28.2348 82.6903 28.2819 82.0704 28.2819 81.6355H28.6304C28.6304 81.6621 28.6742 81.8021 28.7634 82.0571C28.8527 82.3104 28.9739 82.652 29.1288 83.0819L29.314 83.5935C29.447 83.9568 29.5345 84.2051 29.5766 84.3351C29.6187 84.4651 29.6406 84.5534 29.6406 84.5984H29.6557C29.6557 84.4751 29.8409 83.9951 30.213 83.1603C30.5834 82.3254 30.7702 81.8171 30.7702 81.6388H31.1137C31.1137 81.8538 31.1389 82.3154 31.1894 83.0203C31.2399 83.7252 31.277 84.2051 31.2989 84.4584L31.3376 84.9017H31.0817V84.8984Z" fill="#FFFFFE"/>
<path d="M32.4353 84.8983L32.4521 84.3751C32.4723 83.8702 32.4824 83.4719 32.4824 83.1802C32.4824 82.877 32.474 82.5487 32.4588 82.1954C32.4437 81.8438 32.4353 81.6555 32.4336 81.6338H34.2283L34.2182 81.8388C33.8461 81.8254 33.3259 81.8188 32.6626 81.8188C32.6693 82.1887 32.6727 82.6137 32.6727 83.0903C33.203 83.0903 33.6171 83.0803 33.9168 83.0603V83.2852C33.5161 83.2686 33.1003 83.2602 32.6727 83.2602V83.8135C32.6727 84.1718 32.676 84.4734 32.6861 84.715C33.309 84.715 33.8764 84.7017 34.3882 84.675L34.3781 84.895H32.4353V84.8983Z" fill="#FFFFFE"/>
<path d="M35.5818 81.6271C35.6795 81.6221 35.7721 81.6205 35.8596 81.6205C36.395 81.6205 36.8091 81.7521 37.1054 82.0171C37.4017 82.2821 37.5499 82.6787 37.5499 83.2053C37.5499 83.7302 37.3933 84.1501 37.0802 84.4651C36.767 84.78 36.3478 84.9384 35.8243 84.9384C35.7754 84.9384 35.6812 84.9334 35.5414 84.9234L35.1037 84.8984C35.1323 84.2934 35.1475 83.7219 35.1475 83.1803C35.1475 82.6737 35.1323 82.1587 35.1037 81.6355H35.2451C35.3192 81.6355 35.3849 81.6355 35.4421 81.6338L35.5818 81.6271ZM36.9472 82.1454C36.6896 81.9188 36.3411 81.8055 35.9051 81.8055C35.6593 81.8055 35.4707 81.8121 35.3377 81.8255C35.3377 82.1171 35.3394 82.3387 35.3411 82.487L35.3444 83.1803L35.3411 83.8985C35.3411 84.2251 35.3461 84.5034 35.3562 84.7317C35.4253 84.7417 35.4943 84.7484 35.5616 84.7534C35.6306 84.7584 35.7148 84.7601 35.8158 84.7601C36.299 84.7601 36.6711 84.6284 36.9371 84.3651C37.2014 84.1018 37.3344 83.7335 37.3344 83.2619C37.3327 82.7453 37.2048 82.372 36.9472 82.1454Z" fill="#FFFFFE"/>
<path d="M38.427 84.8984C38.4556 84.1551 38.4708 83.5819 38.4708 83.1803C38.4708 82.7137 38.4556 82.1987 38.427 81.6355H38.693C38.6745 82.0321 38.6644 82.547 38.6644 83.1753C38.6644 83.7352 38.6745 84.3084 38.693 84.8984H38.427Z" fill="#FFFFFE"/>
<path d="M40.0028 83.7085C39.8479 84.0651 39.7351 84.3401 39.6644 84.5301C39.5937 84.72 39.5583 84.8434 39.5583 84.8984H39.2873C39.2873 84.845 39.523 84.3151 39.9927 83.3086C40.4624 82.302 40.6981 81.7438 40.6981 81.6355H40.9843C40.9843 81.7338 41.2166 82.2804 41.6796 83.2752C42.1426 84.2701 42.3749 84.81 42.3749 84.9H42.114C42.114 84.7917 41.9625 84.3951 41.6577 83.7102H40.0028V83.7085ZM40.8378 81.8404H40.8143C40.8143 81.8888 40.5634 82.457 40.0634 83.5435H41.5769C41.3278 82.9653 41.1426 82.5453 41.0197 82.2804C40.8984 82.0154 40.8378 81.8688 40.8378 81.8404Z" fill="#FFFFFE"/>
<path d="M47.1057 84.8984C47.0939 84.3518 47.0653 83.7752 47.0216 83.1686C46.9778 82.562 46.9508 82.2254 46.9424 82.1587C46.934 82.0921 46.929 82.0237 46.9256 81.9538H46.9189L46.3818 83.2152C46.0703 83.9535 45.8868 84.4068 45.8313 84.5751C45.7757 84.7434 45.7488 84.8517 45.7488 84.8984H45.567C45.567 84.8034 45.4761 84.5134 45.2959 84.0268C45.1158 83.5402 44.9407 83.0636 44.7723 82.597C44.604 82.1287 44.508 81.8754 44.4844 81.8354H44.4693C44.4609 82.2654 44.4154 82.8436 44.3329 83.5685C44.2504 84.2934 44.2083 84.7367 44.2083 84.8984H43.976C44.0029 84.7634 44.0652 84.2951 44.1612 83.4919C44.2589 82.6903 44.306 82.0704 44.306 81.6355H44.6545C44.6545 81.6621 44.6983 81.8021 44.7875 82.0571C44.8767 82.3104 44.9979 82.652 45.1528 83.0819L45.338 83.5935C45.471 83.9568 45.5585 84.2051 45.6006 84.3351C45.6427 84.4651 45.6646 84.5534 45.6646 84.5984H45.6798C45.6798 84.4751 45.865 83.9951 46.237 83.1603C46.6074 82.3254 46.7943 81.8171 46.7943 81.6388H47.1377C47.1377 81.8538 47.163 82.3154 47.2135 83.0203C47.264 83.7252 47.301 84.2051 47.3229 84.4584L47.3616 84.9017H47.1057V84.8984Z" fill="#FFFFFE"/>
<path d="M48.636 83.7085C48.4812 84.0651 48.3684 84.3401 48.2976 84.5301C48.2269 84.72 48.1916 84.8434 48.1916 84.8984H47.9205C47.9205 84.845 48.1562 84.3151 48.6259 83.3086C49.0956 82.302 49.3313 81.7438 49.3313 81.6355H49.6175C49.6175 81.7338 49.8499 82.2804 50.3129 83.2752C50.7758 84.2701 51.0082 84.81 51.0082 84.9H50.7472C50.7472 84.7917 50.5957 84.3951 50.291 83.7102H48.636V83.7085ZM49.4711 81.8404H49.4475C49.4475 81.8888 49.1967 82.457 48.6966 83.5435H50.2102C49.961 82.9653 49.7758 82.5453 49.6529 82.2804C49.5317 82.0154 49.4711 81.8688 49.4711 81.8404Z" fill="#FFFFFE"/>
<path d="M52.2691 81.6221C52.3668 81.6221 52.4459 81.6221 52.5065 81.6205C52.8567 81.6205 53.121 81.6871 53.2978 81.8188C53.4746 81.9504 53.5621 82.1471 53.5621 82.407C53.5621 82.6137 53.5065 82.792 53.3954 82.9436C53.2843 83.0936 53.1294 83.2103 52.9324 83.2936V83.3086C53.1294 83.3619 53.3011 83.5136 53.4443 83.7635C53.589 84.0135 53.754 84.3918 53.9409 84.8984H53.7136C53.5974 84.5934 53.4779 84.3184 53.355 84.0735C53.2321 83.8285 53.1277 83.6702 53.0419 83.5969C52.956 83.5236 52.8752 83.4752 52.7994 83.4486C52.7254 83.4219 52.5671 83.4102 52.323 83.4102C52.0856 83.4102 51.9223 83.4119 51.8348 83.4152C51.8348 84.1068 51.8449 84.6001 51.8684 84.8984H51.5923C51.6092 84.5584 51.6226 84.2585 51.6311 84.0018C51.6395 83.7452 51.6445 83.4702 51.6445 83.1803C51.6445 82.627 51.6311 82.1121 51.6008 81.6355H51.8971L52.2691 81.6221ZM52.3887 83.2253C52.6732 83.2253 52.9038 83.1553 53.0789 83.0136C53.254 82.872 53.3416 82.687 53.3416 82.457C53.3416 82.2237 53.2658 82.0571 53.116 81.9554C52.9661 81.8554 52.717 81.8055 52.3668 81.8055C52.1597 81.8055 51.9796 81.8105 51.828 81.8205C51.8348 81.9388 51.8381 82.0988 51.8381 82.3021C51.8381 82.4754 51.8365 82.6103 51.8348 82.7053L51.8314 83.2219C51.8668 83.2253 51.9291 83.2269 52.0183 83.2269H52.3887V83.2253Z" fill="#FFFFFE"/>
<path d="M55.4932 83.3069C55.3501 83.2019 55.2221 83.1503 55.1093 83.1503H55.0201C55.0201 83.7385 55.0302 84.3201 55.0487 84.8984H54.7827C54.7962 84.5551 54.8063 84.2518 54.8147 83.9918C54.8214 83.7318 54.8265 83.4602 54.8265 83.1803C54.8265 82.6737 54.8113 82.1587 54.7827 81.6355H55.0487C55.0302 81.9821 55.0201 82.432 55.0201 82.9853H55.0891C55.2238 82.9853 55.505 82.7736 55.9343 82.3487C56.3636 81.9238 56.5774 81.6871 56.5774 81.6355H56.8838C56.8838 81.6571 56.8383 81.7088 56.7457 81.7888C56.6531 81.8688 56.4528 82.0654 56.1447 82.3754C55.8366 82.687 55.5891 82.9036 55.4056 83.0253V83.0419C55.5167 83.0669 55.6447 83.1453 55.7861 83.2752C55.9292 83.4052 56.1615 83.6535 56.4831 84.0218C56.9713 84.5734 57.2138 84.865 57.2138 84.8984H56.9276C56.9225 84.8834 56.8316 84.77 56.6531 84.5601C56.4747 84.3501 56.2962 84.1418 56.1178 83.9368C55.845 83.6202 55.6363 83.4102 55.4932 83.3069Z" fill="#FFFFFE"/>
<path d="M57.8653 84.8983L57.8821 84.3751C57.9023 83.8702 57.9124 83.4719 57.9124 83.1802C57.9124 82.877 57.904 82.5487 57.8888 82.1954C57.8737 81.8438 57.8653 81.6555 57.8636 81.6338H59.6582L59.6481 81.8388C59.2761 81.8254 58.7559 81.8188 58.0925 81.8188C58.0993 82.1887 58.1026 82.6137 58.1026 83.0903C58.633 83.0903 59.0471 83.0803 59.3468 83.0603V83.2852C58.9461 83.2686 58.5303 83.2602 58.1026 83.2602V83.8135C58.1026 84.1718 58.106 84.4734 58.1161 84.715C58.739 84.715 59.3064 84.7017 59.8182 84.675L59.8081 84.895H57.8653V84.8983Z" fill="#FFFFFE"/>
<path d="M62.1095 81.8321C61.7391 81.8238 61.495 81.8188 61.3805 81.8188C61.3637 82.2087 61.3553 82.6603 61.3553 83.1736C61.3553 83.7202 61.3637 84.2934 61.3805 84.8967H61.1179C61.1448 84.1968 61.1583 83.6252 61.1583 83.1786C61.1583 82.9436 61.1549 82.727 61.1499 82.532C61.1431 82.337 61.1347 82.0987 61.1229 81.8188C60.9899 81.8188 60.793 81.8238 60.5303 81.8321L60.0286 81.8454V81.6355H62.4731L62.463 81.8404L62.1095 81.8321Z" fill="#FFFFFE"/>
<path d="M63.0859 84.8984C63.1146 84.1551 63.1297 83.5819 63.1297 83.1803C63.1297 82.7137 63.1146 82.1987 63.0859 81.6355H63.3519C63.3334 82.0321 63.3233 82.547 63.3233 83.1753C63.3233 83.7352 63.3317 84.3084 63.3519 84.8984H63.0859Z" fill="#FFFFFE"/>
<path d="M64.9564 81.9704C65.6382 82.9336 66.0877 83.5869 66.3049 83.9285C66.5221 84.2701 66.6366 84.4567 66.6467 84.4867H66.6568C66.64 84.1151 66.6315 83.7468 66.6315 83.3852V82.707C66.6315 82.252 66.6265 81.8954 66.6164 81.6355H66.8386C66.8184 82.0171 66.8083 82.5653 66.8083 83.2786C66.8083 83.6002 66.81 83.8852 66.8134 84.1335C66.8167 84.3818 66.8251 84.6367 66.8386 84.8984H66.6938C66.6905 84.8984 66.576 84.7234 66.3504 84.3751C66.1248 84.0268 65.9228 83.7235 65.746 83.4685L65.1668 82.632L64.9766 82.357C64.8924 82.237 64.8285 82.1437 64.7847 82.0787C64.7409 82.0137 64.7106 81.9654 64.6938 81.9338H64.6837C64.6971 82.3287 64.7039 82.6903 64.7039 83.0153C64.7039 83.1669 64.7022 83.3836 64.6988 83.6635L64.6955 84.2301C64.6955 84.5017 64.7005 84.725 64.7089 84.8984H64.4867C64.5153 84.2534 64.5288 83.6819 64.5288 83.1803C64.5288 82.6737 64.5153 82.1587 64.4867 81.6355H64.7241C64.7241 81.6405 64.7561 81.6871 64.8184 81.7738L64.9564 81.9704Z" fill="#FFFFFE"/>
<path d="M68.2123 82.0721C68.5558 81.7504 68.9885 81.5888 69.512 81.5888C69.6905 81.5888 69.8656 81.6155 70.039 81.6671L69.9935 81.8971C69.709 81.8288 69.4969 81.7938 69.3605 81.7938C68.9262 81.7938 68.576 81.9304 68.3117 82.2054C68.0474 82.4803 67.916 82.8236 67.916 83.2386C67.916 83.7552 68.0507 84.1418 68.3201 84.4001C68.5895 84.6584 68.9817 84.7884 69.4935 84.7884C69.5929 84.7884 69.6787 84.785 69.7494 84.775C69.8201 84.7667 69.906 84.7517 70.007 84.73C69.9935 84.5951 69.9868 84.3768 69.9868 84.0735C69.9868 83.9868 69.9818 83.8768 69.9733 83.7435L69.9666 83.5352H70.2242C70.2175 83.6052 70.2107 83.7735 70.2023 84.0401C70.1956 84.3068 70.1905 84.5251 70.1905 84.695C70.1905 84.775 70.1905 84.8267 70.1922 84.85C70.0188 84.925 69.7747 84.9633 69.4615 84.9633C68.9026 84.9633 68.4699 84.8184 68.1602 84.5284C67.8504 84.2384 67.6955 83.8335 67.6955 83.3152C67.6989 82.8103 67.8706 82.3954 68.2123 82.0721Z" fill="#FFFFFE"/>
<path d="M72.7731 81.9704C73.455 82.9336 73.9045 83.5869 74.1216 83.9285C74.3388 84.2701 74.4533 84.4567 74.4634 84.4867H74.4735C74.4567 84.1151 74.4482 83.7468 74.4482 83.3852V82.707C74.4482 82.252 74.4432 81.8954 74.4331 81.6355H74.6553C74.6351 82.0171 74.625 82.5653 74.625 83.2786C74.625 83.6002 74.6267 83.8852 74.6301 84.1335C74.6334 84.3818 74.6419 84.6367 74.6553 84.8984H74.5105C74.5072 84.8984 74.3927 84.7234 74.1671 84.3751C73.9415 84.0268 73.7395 83.7235 73.5627 83.4685L72.9836 82.632L72.7933 82.357C72.7091 82.237 72.6452 82.1437 72.6014 82.0787C72.5576 82.0137 72.5273 81.9654 72.5105 81.9338H72.5004C72.5139 82.3287 72.5206 82.6903 72.5206 83.0153C72.5206 83.1669 72.5189 83.3836 72.5155 83.6635L72.5122 84.2301C72.5122 84.5017 72.5172 84.725 72.5256 84.8984H72.3034C72.332 84.2534 72.3472 83.6819 72.3472 83.1803C72.3472 82.6737 72.332 82.1587 72.3034 81.6355H72.5408C72.5408 81.6405 72.5711 81.6871 72.6351 81.7738L72.7731 81.9704Z" fill="#FFFFFE"/>
<path d="M75.785 84.8983L75.8035 84.3751C75.8237 83.8702 75.8338 83.4719 75.8338 83.1802C75.8338 82.877 75.8271 82.5487 75.8119 82.1954C75.7968 81.8438 75.7883 81.6555 75.7867 81.6338H77.5813L77.5712 81.8388C77.1992 81.8254 76.6789 81.8188 76.0156 81.8188C76.0224 82.1887 76.0257 82.6137 76.0257 83.0903C76.556 83.0903 76.9702 83.0803 77.2699 83.0603V83.2852C76.8692 83.2686 76.4533 83.2602 76.0257 83.2602V83.8135C76.0257 84.1718 76.0291 84.4734 76.0375 84.715C76.6604 84.715 77.2278 84.7017 77.7413 84.675L77.7312 84.895H75.785V84.8983Z" fill="#FFFFFE"/>
<path d="M80.0275 81.8321C79.6571 81.8238 79.413 81.8188 79.2985 81.8188C79.2817 82.2087 79.2733 82.6603 79.2733 83.1736C79.2733 83.7202 79.2817 84.2934 79.2985 84.8967H79.0359C79.0628 84.1968 79.0763 83.6252 79.0763 83.1786C79.0763 82.9436 79.073 82.727 79.0679 82.532C79.0612 82.337 79.0527 82.0987 79.041 81.8188C78.908 81.8188 78.711 81.8238 78.4484 81.8321L77.9467 81.8454V81.6355H80.3912L80.3811 81.8404L80.0275 81.8321Z" fill="#FFFFFE"/>
<path d="M84.8458 81.6338C84.8458 81.6921 84.7532 81.9637 84.5663 82.447C84.3795 82.9303 84.2061 83.4302 84.0428 83.9468C83.8795 84.4634 83.7987 84.78 83.7987 84.8967H83.5764C83.5764 84.8034 83.4889 84.4684 83.3155 83.8918C83.1421 83.3152 82.9299 82.6603 82.6808 81.9271H82.6522C82.6 82.0887 82.4821 82.422 82.3003 82.9253C82.1185 83.4285 81.9737 83.8618 81.8693 84.2268C81.7632 84.59 81.7111 84.815 81.7111 84.8983H81.4888C81.4888 84.8333 81.4501 84.6634 81.3743 84.3901C81.2986 84.1168 81.1959 83.7752 81.0662 83.3686C80.9366 82.9619 80.839 82.6653 80.7683 82.4803C80.6976 82.2954 80.6504 82.1704 80.6285 82.1037L80.5629 81.9204C80.5528 81.8954 80.5342 81.8471 80.509 81.7738C80.4837 81.7004 80.4703 81.6555 80.4703 81.6355H80.7363C80.7363 81.7054 80.8743 82.1637 81.1521 83.0119C81.4299 83.8602 81.5781 84.3917 81.5966 84.6117H81.6067C81.61 84.4651 81.7632 83.9568 82.0646 83.0853C82.366 82.2154 82.5175 81.7321 82.5175 81.6371H82.8188C82.8188 81.6988 82.9586 82.1537 83.2363 83.0036C83.5141 83.8518 83.664 84.3884 83.6842 84.6134H83.6943C83.6976 84.4701 83.8508 83.9601 84.1539 83.0853C84.4569 82.2104 84.6084 81.7271 84.6084 81.6371H84.8458V81.6338Z" fill="#FFFFFE"/>
<path d="M85.6169 84.5651C85.3206 84.2751 85.1724 83.8568 85.1724 83.3136C85.1724 82.792 85.3239 82.3737 85.6287 82.0571C85.9317 81.7405 86.2886 81.5805 86.696 81.5805C87.0934 81.5805 87.4385 81.7288 87.7264 82.0271C88.0159 82.3254 88.1607 82.7253 88.1607 83.2253C88.1607 83.7735 88.0092 84.2051 87.7062 84.5234C87.4031 84.8417 87.0462 85 86.6321 85C86.2516 85 85.9132 84.855 85.6169 84.5651ZM85.999 81.9621C85.8021 82.1037 85.6506 82.292 85.5462 82.5287C85.4418 82.7653 85.3896 83.0269 85.3896 83.3136C85.3896 83.8035 85.5209 84.1785 85.7836 84.4401C86.0462 84.7017 86.3543 84.8317 86.7112 84.8317C87.0277 84.8317 87.3139 84.6884 87.5647 84.4018C87.8173 84.1151 87.9435 83.7385 87.9435 83.2752C87.9435 82.7786 87.8156 82.402 87.5597 82.1421C87.3038 81.8821 86.9907 81.7521 86.6236 81.7521C86.4031 81.7505 86.196 81.8204 85.999 81.9621Z" fill="#FFFFFE"/>
<path d="M89.6962 81.6221C89.7938 81.6221 89.8729 81.6221 89.9335 81.6205C90.2837 81.6205 90.548 81.6871 90.7248 81.8188C90.9016 81.9504 90.9891 82.1471 90.9891 82.407C90.9891 82.6137 90.9336 82.792 90.8224 82.9436C90.7113 83.0936 90.5564 83.2103 90.3595 83.2936V83.3086C90.5564 83.3619 90.7282 83.5136 90.8713 83.7635C91.0161 84.0135 91.1811 84.3918 91.3679 84.8984H91.1406C91.0245 84.5934 90.9049 84.3184 90.782 84.0735C90.6591 83.8285 90.5548 83.6702 90.4689 83.5969C90.3814 83.5236 90.3022 83.4752 90.2282 83.4486C90.1541 83.4219 89.9958 83.4102 89.7517 83.4102C89.5143 83.4102 89.351 83.4119 89.2635 83.4152C89.2635 84.1068 89.2753 84.6001 89.2972 84.8984H89.0211C89.0379 84.5584 89.0514 84.2585 89.0598 84.0018C89.0699 83.7452 89.0732 83.4702 89.0732 83.1803C89.0732 82.627 89.0598 82.1121 89.0295 81.6355H89.3258L89.6962 81.6221ZM89.814 83.2253C90.0985 83.2253 90.3292 83.1553 90.5043 83.0136C90.6794 82.872 90.7669 82.687 90.7669 82.457C90.7669 82.2237 90.6911 82.0571 90.5413 81.9554C90.3915 81.8554 90.1423 81.8055 89.7921 81.8055C89.585 81.8055 89.4049 81.8105 89.2534 81.8205C89.2601 81.9388 89.2635 82.0988 89.2635 82.3021C89.2635 82.4754 89.2635 82.6103 89.2618 82.7053L89.2601 83.2219C89.2955 83.2253 89.3578 83.2269 89.447 83.2269H89.814V83.2253Z" fill="#FFFFFE"/>
<path d="M92.9185 83.3069C92.7754 83.2019 92.6474 83.1503 92.5346 83.1503H92.4454C92.4454 83.7385 92.4538 84.3201 92.474 84.8984H92.208C92.2215 84.5551 92.2316 84.2518 92.24 83.9918C92.2467 83.7318 92.2518 83.4602 92.2518 83.1803C92.2518 82.6737 92.2366 82.1587 92.208 81.6355H92.474C92.4555 81.9821 92.4454 82.432 92.4454 82.9853H92.5144C92.6491 82.9853 92.9302 82.7736 93.3595 82.3487C93.7889 81.9238 94.0027 81.6871 94.0027 81.6355H94.3091C94.3091 81.6571 94.2636 81.7088 94.171 81.7888C94.0784 81.8688 93.8781 82.0654 93.57 82.3754C93.2619 82.687 93.0144 82.9036 92.8309 83.0253V83.0419C92.942 83.0669 93.07 83.1453 93.2114 83.2752C93.3545 83.4052 93.5868 83.6535 93.9084 84.0218C94.3966 84.5734 94.6391 84.865 94.6391 84.8984H94.3528C94.3478 84.8834 94.2569 84.77 94.0784 84.5601C93.9 84.3501 93.7215 84.1418 93.5431 83.9368C93.2703 83.6202 93.0632 83.4102 92.9185 83.3069Z" fill="#FFFFFE"/>
<path d="M78.6739 16.7544C78.9635 17.0993 78.95 17.5059 78.6554 17.7609C78.349 18.0275 77.9904 17.9875 77.647 17.6609C76.8086 16.8644 76.0173 16.0128 75.1149 15.2962C73.7058 14.1731 72.0694 13.4665 70.3084 13.0566C67.0541 12.2967 63.9143 12.6299 60.9276 14.1264C60.2441 14.4697 59.6195 14.9296 58.968 15.3396C58.8131 15.4379 58.67 15.5562 58.5101 15.6429C58.1767 15.8228 57.8417 15.7512 57.6279 15.4662C57.4141 15.1863 57.441 14.7863 57.734 14.5513C58.1128 14.2464 58.5067 13.9498 58.9158 13.6898C61.224 12.235 63.7324 11.3934 66.4817 11.3251C67.2275 11.3035 67.9733 11.3351 68.3858 11.3401C72.7495 11.8751 76.0779 13.6531 78.6739 16.7544Z" fill="#FFFFFE"/>
<path d="M71.7798 7.60228C65.7965 6.19247 60.298 7.30732 55.3467 10.9585C55.2002 11.0668 55.0537 11.1801 54.8921 11.2618C54.5992 11.4101 54.2642 11.3218 54.0672 11.0718C53.8786 10.8285 53.8803 10.4786 54.0823 10.2336C54.1429 10.1603 54.2153 10.0919 54.2928 10.0336C57.7138 7.39731 61.5809 5.91584 65.9194 5.70087C67.0676 5.64255 68.2174 5.69754 68.8892 5.70087C74.8944 6.47077 79.477 8.8821 83.0495 13.1332C83.169 13.2782 83.2869 13.4548 83.3239 13.6348C83.3828 13.9147 83.265 14.1597 82.999 14.3097C82.7246 14.463 82.4451 14.4597 82.2212 14.2364C81.8727 13.8798 81.5528 13.4965 81.2127 13.1315C78.6234 10.3586 75.4786 8.47383 71.7798 7.60228Z" fill="#FFFFFE"/>
<path d="M50.4223 6.5241C50.2758 6.20248 50.3718 5.92085 50.6328 5.70921C50.9813 5.42425 51.3432 5.15262 51.7136 4.89266C54.2574 3.09457 56.9865 1.78475 59.899 0.973195H59.9024C60.4243 0.959864 60.9495 0.954865 61.4731 0.954865C67.7763 0.954865 73.8843 1.72476 79.6841 3.16623C79.6874 3.16623 79.6874 3.16623 79.6891 3.16623C82.2801 4.56104 84.6152 6.40078 86.7011 8.67547C87.1001 9.11374 87.4436 9.60368 87.8139 10.0669C87.7988 10.2119 87.782 10.3569 87.7668 10.5019C87.2415 11.0335 86.8981 11.0235 86.4115 10.4386C83.5562 7.01736 80.0511 4.49938 75.849 2.94459C73.2226 1.97139 70.5054 1.46813 67.7006 1.3948C63.0759 1.27149 58.7458 2.33301 54.7356 4.61103C53.6648 5.21928 52.68 5.96918 51.6496 6.64908C51.4897 6.75407 51.3196 6.87905 51.1378 6.91071C50.8213 6.96737 50.5604 6.82739 50.4223 6.5241Z" fill="#FFFFFE"/>
<path d="M49.4475 31.3624C48.9997 32.5505 49.0115 33.777 48.8482 35.0702C48.7236 34.9669 48.5283 34.8386 48.397 34.7402V34.7369C48.0586 34.4786 47.7 34.217 47.3212 33.9587C47.2286 33.892 47.1326 33.8287 47.0367 33.767C46.9407 33.7037 46.8448 33.6371 46.7437 33.5771C46.6444 33.5137 46.5434 33.4504 46.4424 33.3871C46.2404 33.2638 46.0316 33.1371 45.8195 33.0155C45.609 32.8938 45.3935 32.7722 45.173 32.6572C45.1696 32.6539 45.1679 32.6539 45.1646 32.6539C45.0535 32.5939 44.939 32.5322 44.8245 32.4772C44.71 32.4172 44.5955 32.3606 44.4777 32.3039C44.3598 32.2456 44.2437 32.1906 44.1241 32.1356C44.0063 32.0773 43.8851 32.0256 43.7622 31.9689C43.5164 31.8606 43.2672 31.7523 43.0113 31.6507C42.8834 31.5973 42.7554 31.5473 42.6258 31.5007C42.4945 31.4507 42.3648 31.4007 42.2318 31.3524C42.146 31.3207 42.0584 31.289 41.9709 31.2607C41.7891 31.1974 41.6056 31.1374 41.4204 31.0757C34.4202 28.841 30.878 32.3256 28.9874 32.9938C29.3544 38.4531 26.9418 47.7435 21.2935 59.7451C16.4399 70.0554 9.40767 76.9628 3.75431 81.2605C2.26606 79.9524 1.00171 78.3376 0 76.8145C5.57591 71.3236 12.2091 62.8997 16.2614 51.1313C21.5427 35.7901 19.8373 22.3186 18.1369 14.903C23.1252 11.2235 28.6927 8.16555 34.698 5.86253C34.7013 5.86253 34.703 5.8592 34.7064 5.8592C38.2486 4.49939 41.9406 3.40287 45.7538 2.59631C45.7319 3.8728 46.6545 11.3151 41.9625 13.2265C34.3697 16.3178 28.7702 17.6309 28.2281 17.5343C28.457 19.9123 28.6826 24.53 28.9099 26.908C30.9739 25.6831 36.469 22.8169 43.05 24.0817C45.1275 24.48 48.3111 25.0916 50.5301 27.8478C50.6092 27.9462 50.5553 27.8745 50.6294 27.9745C50.7253 28.1045 50.6748 28.0278 50.759 28.1595C50.2371 29.0377 49.9425 29.9026 49.5822 30.8658C49.5822 30.8691 49.4475 31.3624 49.4475 31.3624Z" fill="#FFFFFE"/>
<path d="M70.2259 53.206C70.3774 53.161 70.6013 53.0944 70.869 53.0077C78.6403 50.5397 83.6825 46.0487 86.8846 43.0224C89.644 40.4144 93.5279 36.8399 96.831 30.8774C99.4422 26.1631 101.552 22.6552 102.131 19.6706C104.523 21.2687 106.075 22.1869 108.613 24.1233C111.717 26.493 114.547 28.8527 117.111 31.144C117.741 30.1908 118.37 29.2393 118.998 28.2861C117.121 25.8014 114.764 23.0435 111.838 20.2572C107.744 16.3561 103.697 13.5031 100.279 11.4434C99.0028 15.7378 96.6357 21.7637 92.0666 27.9428C89.3409 31.629 86.489 34.4819 84.0024 36.625C83.935 38.3731 83.5461 41.9209 81.1892 45.4737C77.1992 51.4913 70.6771 52.8327 69.3538 53.076C69.6451 53.1177 69.9363 53.1627 70.2259 53.206Z" fill="#FFFFFE"/>
</g>
<defs>
<clipPath id="clip0_142_1745">
<rect width="119" height="85" fill="white"/>
</clipPath>
</defs>
</svg>
