<svg width="125" height="26" viewBox="0 0 125 26" fill="none" xmlns="http://www.w3.org/2000/svg">
<path d="M54.0826 14.5146L54.8082 9.84466H50.2694V6.81427C50.2694 5.53649 50.9034 4.29126 52.9364 4.29126H55V0.315534C55 0.315534 53.1272 0 51.3366 0C47.5985 0 45.1553 2.23651 45.1553 6.28544V9.84466H41V14.5146H45.1553V25.8037C46.0012 25.9346 46.8561 26.0002 47.7123 26C48.5686 26.0003 49.4235 25.9346 50.2694 25.8037V14.5146H54.0826Z" fill="white"/>
<path d="M77.501 2C74.3779 2 73.9858 2.01368 72.7592 2.06946C71.535 2.12558 70.6992 2.31935 69.9681 2.60374C69.2116 2.89745 68.57 3.2904 67.9309 3.9298C67.2911 4.56907 66.8982 5.21065 66.6035 5.96677C66.3183 6.69816 66.1243 7.5342 66.0692 8.75791C66.0144 9.9846 66 10.3767 66 13.5C66 16.6233 66.0138 17.014 66.0695 18.2406C66.1258 19.4649 66.3196 20.3006 66.6037 21.0317C66.8977 21.7882 67.2906 22.4298 67.93 23.0689C68.5691 23.7087 69.2107 24.1025 69.9666 24.3963C70.6983 24.6806 71.5341 24.8744 72.7582 24.9305C73.9849 24.9863 74.3766 25 77.4997 25C80.6232 25 81.0139 24.9863 82.2405 24.9305C83.4648 24.8744 84.3014 24.6806 85.0332 24.3963C85.7893 24.1025 86.43 23.7087 87.0689 23.0689C87.7087 22.4298 88.1015 21.7882 88.3962 21.0321C88.6789 20.3006 88.873 19.4646 88.9305 18.2408C88.9856 17.0142 89 16.6233 89 13.5C89 10.3767 88.9856 9.98483 88.9305 8.75814C88.873 7.53386 88.6789 6.69828 88.3962 5.96712C88.1015 5.21065 87.7087 4.56907 87.0689 3.9298C86.4293 3.29017 85.7895 2.89722 85.0325 2.60386C84.2994 2.31935 83.4632 2.12546 82.2389 2.06946C81.0122 2.01368 80.6217 2 77.4975 2H77.501ZM76.4694 4.07239C76.7756 4.07193 77.1173 4.07239 77.501 4.07239C80.5717 4.07239 80.9355 4.08343 82.1481 4.13852C83.2693 4.18981 83.8779 4.37714 84.2833 4.53457C84.82 4.74295 85.2026 4.99216 85.6049 5.39477C86.0074 5.79726 86.2564 6.18055 86.4654 6.71725C86.6228 7.12205 86.8104 7.73062 86.8615 8.85186C86.9165 10.0642 86.9285 10.4283 86.9285 13.4974C86.9285 16.5664 86.9165 16.9306 86.8615 18.1428C86.8102 19.2641 86.6228 19.8727 86.4654 20.2776C86.257 20.8143 86.0074 21.1964 85.6049 21.5987C85.2024 22.0012 84.8202 22.2503 84.2833 22.4588C83.8784 22.6169 83.2693 22.8038 82.1481 22.855C80.9357 22.9101 80.5717 22.9221 77.501 22.9221C74.4303 22.9221 74.0663 22.9101 72.8541 22.855C71.7329 22.8033 71.1243 22.616 70.7186 22.4585C70.182 22.25 69.7986 22.0009 69.3961 21.5984C68.9936 21.196 68.7445 20.8136 68.5355 20.2767C68.3781 19.8717 68.1905 19.2632 68.1395 18.1419C68.0844 16.9296 68.0733 16.5655 68.0733 13.4945C68.0733 10.4236 68.0844 10.0613 68.1395 8.84899C68.1908 7.72775 68.3781 7.11917 68.5355 6.7138C68.744 6.1771 68.9936 5.79381 69.3962 5.39132C69.7987 4.98882 70.182 4.73962 70.7187 4.53078C71.1241 4.37266 71.7329 4.18578 72.8541 4.13426C73.915 4.08631 74.3261 4.07193 76.4694 4.06952V4.07239ZM83.6397 5.98184C82.8779 5.98184 82.2597 6.59938 82.2597 7.36136C82.2597 8.12323 82.8779 8.74135 83.6397 8.74135C84.4016 8.74135 85.0197 8.12323 85.0197 7.36136C85.0197 6.59949 84.4016 5.98137 83.6397 5.98137V5.98184ZM77.501 7.59423C74.2396 7.59423 71.5953 10.2385 71.5953 13.5C71.5953 16.7615 74.2396 19.4045 77.501 19.4045C80.7626 19.4045 83.4059 16.7615 83.4059 13.5C83.4059 10.2386 80.7623 7.59423 77.5008 7.59423H77.501ZM77.501 9.66663C79.6181 9.66663 81.3344 11.3828 81.3344 13.5C81.3344 15.617 79.6181 17.3334 77.501 17.3334C75.3839 17.3334 73.6677 15.617 73.6677 13.5C73.6677 11.3828 75.3839 9.66663 77.501 9.66663Z" fill="white"/>
<path d="M29.3379 6.28848C29.1659 5.65287 28.8302 5.0734 28.3644 4.60779C27.8985 4.14217 27.3188 3.80664 26.6829 3.63462C24.3548 3 14.985 3 14.985 3C14.985 3 5.6148 3.01921 3.28672 3.65383C2.65079 3.82586 2.07105 4.16141 1.60522 4.62705C1.13939 5.09269 0.803734 5.67217 0.631674 6.30781C-0.0725178 10.4423 -0.345686 16.7424 0.65101 20.7115C0.823088 21.3471 1.15875 21.9266 1.62458 22.3922C2.09041 22.8578 2.67014 23.1934 3.30605 23.3654C5.63414 24 15.0041 24 15.0041 24C15.0041 24 24.374 24 26.702 23.3654C27.3379 23.1934 27.9177 22.8579 28.3835 22.3922C28.8494 21.9266 29.1851 21.3471 29.3572 20.7115C30.0999 16.5711 30.3288 10.2749 29.3379 6.28848Z" fill="white"/>
<path d="M12 18L20 13.5L12 9V18Z" fill="black"/>
<path d="M122.338 8.2278C122.354 8.45575 122.354 8.6835 122.354 8.91348C122.354 15.9197 116.988 24 107.177 24V23.996C104.278 24 101.44 23.1747 99 21.6187C99.4215 21.6692 99.845 21.6944 100.27 21.6954C102.672 21.6973 105.005 20.8964 106.894 19.4213C105.781 19.4004 104.703 19.0343 103.809 18.3741C102.916 17.7139 102.252 16.7926 101.911 15.7392C102.711 15.8926 103.535 15.8609 104.319 15.6477C101.831 15.148 100.04 12.9746 100.04 10.4506V10.3834C100.782 10.7942 101.613 11.0218 102.461 11.047C100.117 9.48992 99.3951 6.39044 100.81 3.96735C102.15 5.60535 103.82 6.94503 105.714 7.89935C107.608 8.85368 109.683 9.40131 111.804 9.50668C111.593 8.60189 111.624 7.65778 111.895 6.76878C112.166 5.87978 112.666 5.07703 113.347 4.44082C115.496 2.43326 118.875 2.53623 120.894 4.67079C122.089 4.43633 123.234 4.00096 124.282 3.38343C123.884 4.61117 123.05 5.65335 121.937 6.31614C122.994 6.19221 124.027 5.91076 125 5.48125C124.284 6.54684 123.383 7.47693 122.338 8.2278Z" fill="white"/>
</svg>
