<svg width="125" height="23" viewBox="0 0 125 23" fill="none" xmlns="http://www.w3.org/2000/svg">
<path d="M64.501 0C61.3779 0 60.9858 0.0136849 59.7592 0.0694593C58.535 0.125579 57.6992 0.319352 56.9681 0.603744C56.2116 0.897451 55.57 1.2904 54.9309 1.9298C54.2911 2.56907 53.8982 3.21065 53.6035 3.96677C53.3183 4.69816 53.1243 5.5342 53.0692 6.75791C53.0144 7.9846 53 8.37675 53 11.5C53 14.6233 53.0138 15.014 53.0695 16.2406C53.1258 17.4649 53.3196 18.3006 53.6037 19.0317C53.8977 19.7882 54.2906 20.4298 54.93 21.0689C55.5691 21.7087 56.2107 22.1025 56.9666 22.3963C57.6983 22.6806 58.5341 22.8744 59.7582 22.9305C60.9849 22.9863 61.3766 23 64.4997 23C67.6232 23 68.0139 22.9863 69.2405 22.9305C70.4648 22.8744 71.3014 22.6806 72.0332 22.3963C72.7893 22.1025 73.43 21.7087 74.0689 21.0689C74.7087 20.4298 75.1015 19.7882 75.3962 19.0321C75.6789 18.3006 75.873 17.4646 75.9305 16.2408C75.9856 15.0142 76 14.6233 76 11.5C76 8.37675 75.9856 7.98483 75.9305 6.75814C75.873 5.53386 75.6789 4.69828 75.3962 3.96712C75.1015 3.21065 74.7087 2.56907 74.0689 1.9298C73.4293 1.29017 72.7895 0.897221 72.0325 0.603859C71.2994 0.319352 70.4632 0.125464 69.2389 0.0694593C68.0122 0.0136849 67.6217 0 64.4975 0H64.501ZM63.4694 2.07239C63.7756 2.07193 64.1173 2.07239 64.501 2.07239C67.5717 2.07239 67.9355 2.08343 69.1481 2.13852C70.2693 2.18981 70.8779 2.37714 71.2833 2.53457C71.82 2.74295 72.2026 2.99216 72.6049 3.39477C73.0074 3.79726 73.2564 4.18055 73.4654 4.71725C73.6228 5.12205 73.8104 5.73062 73.8615 6.85186C73.9165 8.06418 73.9285 8.42827 73.9285 11.4974C73.9285 14.5664 73.9165 14.9306 73.8615 16.1428C73.8102 17.2641 73.6228 17.8727 73.4654 18.2776C73.257 18.8143 73.0074 19.1964 72.6049 19.5987C72.2024 20.0012 71.8202 20.2503 71.2833 20.4588C70.8784 20.6169 70.2693 20.8038 69.1481 20.855C67.9357 20.9101 67.5717 20.9221 64.501 20.9221C61.4303 20.9221 61.0663 20.9101 59.8541 20.855C58.7329 20.8033 58.1243 20.616 57.7186 20.4585C57.182 20.25 56.7986 20.0009 56.3961 19.5984C55.9936 19.196 55.7445 18.8136 55.5355 18.2767C55.3781 17.8717 55.1905 17.2632 55.1395 16.1419C55.0844 14.9296 55.0733 14.5655 55.0733 11.4945C55.0733 8.42355 55.0844 8.0613 55.1395 6.84899C55.1908 5.72775 55.3781 5.11917 55.5355 4.7138C55.744 4.1771 55.9936 3.79381 56.3962 3.39132C56.7987 2.98882 57.182 2.73962 57.7187 2.53078C58.1241 2.37266 58.7329 2.18578 59.8541 2.13426C60.915 2.08631 61.3261 2.07193 63.4694 2.06952V2.07239ZM70.6397 3.98184C69.8779 3.98184 69.2597 4.59938 69.2597 5.36136C69.2597 6.12323 69.8779 6.74135 70.6397 6.74135C71.4016 6.74135 72.0197 6.12323 72.0197 5.36136C72.0197 4.59949 71.4016 3.98137 70.6397 3.98137V3.98184ZM64.501 5.59423C61.2396 5.59423 58.5953 8.23852 58.5953 11.5C58.5953 14.7615 61.2396 17.4045 64.501 17.4045C67.7626 17.4045 70.4059 14.7615 70.4059 11.5C70.4059 8.23863 67.7623 5.59423 64.5008 5.59423H64.501ZM64.501 7.66663C66.6181 7.66663 68.3344 9.38276 68.3344 11.5C68.3344 13.617 66.6181 15.3334 64.501 15.3334C62.3839 15.3334 60.6677 13.617 60.6677 11.5C60.6677 9.38276 62.3839 7.66663 64.501 7.66663Z" fill="white"/>
<path d="M29.3379 4.28848C29.1659 3.65287 28.8302 3.0734 28.3644 2.60779C27.8985 2.14217 27.3188 1.80664 26.6829 1.63462C24.3548 1 14.985 1 14.985 1C14.985 1 5.6148 1.01921 3.28672 1.65383C2.65079 1.82586 2.07105 2.16141 1.60522 2.62705C1.13939 3.09269 0.803734 3.67217 0.631674 4.30781C-0.0725178 8.44233 -0.345686 14.7424 0.65101 18.7115C0.823088 19.3471 1.15875 19.9266 1.62458 20.3922C2.09041 20.8578 2.67014 21.1934 3.30605 21.3654C5.63414 22 15.0041 22 15.0041 22C15.0041 22 24.374 22 26.702 21.3654C27.3379 21.1934 27.9177 20.8579 28.3835 20.3922C28.8494 19.9266 29.1851 19.3471 29.3572 18.7115C30.0999 14.5711 30.3288 8.27495 29.3379 4.28848Z" fill="white"/>
<path d="M12 16L20 11.5L12 7V16Z" fill="black"/>
<path d="M122.338 6.2278C122.354 6.45575 122.354 6.6835 122.354 6.91348C122.354 13.9197 116.988 22 107.177 22V21.996C104.278 22 101.44 21.1747 99 19.6187C99.4215 19.6692 99.845 19.6944 100.27 19.6954C102.672 19.6973 105.005 18.8964 106.894 17.4213C105.781 17.4004 104.703 17.0343 103.809 16.3741C102.916 15.7139 102.252 14.7926 101.911 13.7392C102.711 13.8926 103.535 13.8609 104.319 13.6477C101.831 13.148 100.04 10.9746 100.04 8.4506V8.38336C100.782 8.79418 101.613 9.02179 102.461 9.04703C100.117 7.48992 99.3951 4.39044 100.81 1.96735C102.15 3.60535 103.82 4.94503 105.714 5.89935C107.608 6.85368 109.683 7.40131 111.804 7.50668C111.593 6.60189 111.624 5.65778 111.895 4.76878C112.166 3.87978 112.666 3.07703 113.347 2.44082C115.496 0.433255 118.875 0.536228 120.894 2.67079C122.089 2.43633 123.234 2.00096 124.282 1.38343C123.884 2.61117 123.05 3.65335 121.937 4.31614C122.994 4.19221 124.027 3.91076 125 3.48125C124.284 4.54684 123.383 5.47693 122.338 6.2278Z" fill="white"/>
</svg>
