<svg width="1846" height="606" viewBox="0 0 1846 606" fill="none" xmlns="http://www.w3.org/2000/svg">
<path d="M1757.86 139.099C1756.73 138.519 1751.11 135.766 1750.06 135.393C1749.02 135 1748.25 134.813 1747.5 135.973C1746.73 137.122 1744.56 139.679 1743.87 140.455C1743.21 141.221 1742.54 141.314 1741.41 140.745C1734.7 137.391 1730.3 134.762 1725.88 127.174C1724.71 125.155 1727.05 125.3 1729.24 120.942C1729.61 120.176 1729.42 119.524 1729.13 118.945C1728.84 118.365 1726.57 112.754 1725.61 110.467C1724.69 108.241 1723.74 108.552 1723.05 108.51C1722.38 108.469 1721.63 108.469 1720.86 108.469C1720.1 108.469 1718.86 108.759 1717.82 109.887C1716.77 111.036 1713.82 113.8 1713.82 119.41C1713.82 125.021 1717.91 130.455 1718.47 131.221C1719.05 131.987 1726.51 143.498 1737.97 148.457C1745.22 151.583 1748.06 151.852 1751.68 151.314C1753.88 150.983 1758.43 148.56 1759.37 145.879C1760.31 143.209 1760.31 140.921 1760.03 140.445C1759.75 139.938 1758.99 139.648 1757.86 139.099Z" fill="white"/>
<path d="M1779.77 112.03C1777.43 106.471 1774.08 101.481 1769.8 97.1959C1765.53 92.9207 1760.54 89.5564 1754.97 87.2273C1749.28 84.8361 1743.23 83.625 1737 83.625H1736.79C1730.52 83.6561 1724.44 84.8982 1718.73 87.3412C1713.21 89.7014 1708.26 93.0553 1704.03 97.3305C1699.8 101.606 1696.47 106.574 1694.18 112.113C1691.79 117.847 1690.59 123.944 1690.62 130.217C1690.66 137.401 1692.37 144.534 1695.59 150.91V166.645C1695.59 169.274 1697.73 171.406 1700.36 171.406H1716.1C1722.48 174.626 1729.61 176.344 1736.79 176.375H1737.01C1743.21 176.375 1749.23 175.174 1754.89 172.824C1760.43 170.516 1765.4 167.204 1769.67 162.97C1773.94 158.736 1777.31 153.788 1779.66 148.271C1782.1 142.556 1783.34 136.48 1783.37 130.207C1783.41 123.903 1782.18 117.785 1779.77 112.03ZM1764.13 157.37C1756.87 164.554 1747.25 168.508 1737 168.508H1736.82C1730.58 168.477 1724.38 166.924 1718.91 164.005L1718.04 163.539H1703.46V148.964L1703 148.095C1700.08 142.619 1698.52 136.418 1698.49 130.176C1698.45 119.855 1702.39 110.166 1709.63 102.869C1716.86 95.5707 1726.51 91.5336 1736.83 91.4922H1737.01C1742.19 91.4922 1747.21 92.4963 1751.94 94.4838C1756.55 96.4195 1760.69 99.2041 1764.26 102.765C1767.81 106.316 1770.6 110.467 1772.54 115.083C1774.55 119.866 1775.55 124.938 1775.53 130.176C1775.47 140.486 1771.42 150.144 1764.13 157.37Z" fill="white"/>
<g clip-path="url(#clip0_63_731)">
<path d="M1803.5 475C1791.97 475 1790.52 475.053 1785.98 475.255C1781.45 475.468 1778.37 476.179 1775.66 477.231C1772.83 478.298 1770.26 479.972 1768.13 482.135C1765.97 484.258 1764.3 486.827 1763.23 489.663C1762.18 492.361 1761.46 495.453 1761.25 499.969C1761.05 504.511 1761 505.956 1761 517.505C1761 529.044 1761.05 530.489 1761.25 535.021C1761.47 539.547 1762.18 542.633 1763.23 545.338C1764.32 548.132 1765.77 550.501 1768.13 552.865C1770.49 555.229 1772.86 556.685 1775.66 557.769C1778.37 558.821 1781.45 559.538 1785.97 559.745C1790.51 559.947 1791.96 560 1803.5 560C1815.04 560 1816.48 559.947 1821.02 559.745C1825.54 559.533 1828.64 558.821 1831.34 557.769C1834.18 556.701 1836.74 555.028 1838.87 552.865C1841.23 550.501 1842.68 548.132 1843.77 545.338C1844.82 542.633 1845.53 539.547 1845.74 535.021C1845.95 530.489 1846 529.044 1846 517.5C1846 505.956 1845.95 504.511 1845.74 499.974C1845.53 495.453 1844.82 492.361 1843.77 489.663C1842.7 486.827 1841.03 484.258 1838.87 482.135C1836.74 479.971 1834.17 478.297 1831.34 477.231C1828.63 476.179 1825.54 475.462 1821.02 475.255C1816.48 475.053 1815.04 475 1803.49 475H1803.51H1803.5ZM1799.69 482.661H1803.51C1814.85 482.661 1816.2 482.698 1820.68 482.905C1824.82 483.091 1827.07 483.787 1828.57 484.366C1830.55 485.136 1831.97 486.061 1833.46 487.548C1834.94 489.036 1835.86 490.449 1836.63 492.436C1837.22 493.928 1837.91 496.181 1838.1 500.325C1838.3 504.803 1838.34 506.147 1838.34 517.489C1838.34 528.832 1838.3 530.181 1838.1 534.659C1837.91 538.803 1837.21 541.05 1836.63 542.548C1835.95 544.394 1834.87 546.062 1833.45 547.431C1831.96 548.918 1830.55 549.837 1828.56 550.607C1827.08 551.192 1824.82 551.882 1820.68 552.074C1816.2 552.276 1814.85 552.323 1803.51 552.323C1792.16 552.323 1790.81 552.276 1786.33 552.074C1782.19 551.882 1779.94 551.192 1778.44 550.607C1776.59 549.927 1774.92 548.842 1773.55 547.431C1772.14 546.06 1771.05 544.39 1770.37 542.543C1769.79 541.05 1769.09 538.798 1768.91 534.654C1768.7 530.176 1768.66 528.832 1768.66 517.479C1768.66 506.131 1768.7 504.792 1768.91 500.314C1769.1 496.17 1769.79 493.918 1770.37 492.42C1771.14 490.438 1772.07 489.02 1773.55 487.532C1775.04 486.045 1776.45 485.126 1778.44 484.355C1779.94 483.771 1782.19 483.08 1786.33 482.889C1790.25 482.708 1791.77 482.655 1799.69 482.65V482.661ZM1826.19 489.716C1825.52 489.716 1824.86 489.848 1824.24 490.104C1823.62 490.36 1823.06 490.736 1822.58 491.209C1822.11 491.683 1821.73 492.245 1821.48 492.864C1821.22 493.483 1821.09 494.146 1821.09 494.816C1821.09 495.485 1821.22 496.149 1821.48 496.767C1821.73 497.386 1822.11 497.948 1822.58 498.422C1823.06 498.895 1823.62 499.271 1824.24 499.527C1824.86 499.784 1825.52 499.916 1826.19 499.916C1827.54 499.916 1828.84 499.378 1829.8 498.422C1830.75 497.465 1831.29 496.168 1831.29 494.816C1831.29 493.463 1830.75 492.166 1829.8 491.209C1828.84 490.253 1827.54 489.716 1826.19 489.716ZM1803.51 495.676C1800.61 495.631 1797.74 496.162 1795.05 497.239C1792.36 498.315 1789.91 499.916 1787.85 501.947C1785.79 503.978 1784.15 506.4 1783.03 509.07C1781.91 511.741 1781.34 514.607 1781.34 517.503C1781.34 520.398 1781.91 523.264 1783.03 525.935C1784.15 528.605 1785.79 531.027 1787.85 533.058C1789.91 535.089 1792.36 536.69 1795.05 537.766C1797.74 538.843 1800.61 539.374 1803.51 539.329C1809.24 539.24 1814.7 536.901 1818.72 532.817C1822.74 528.734 1824.99 523.233 1824.99 517.503C1824.99 511.772 1822.74 506.272 1818.72 502.188C1814.7 498.105 1809.24 495.766 1803.51 495.676ZM1803.51 503.332C1807.26 503.332 1810.87 504.824 1813.52 507.481C1816.18 510.139 1817.67 513.742 1817.67 517.5C1817.67 521.258 1816.18 524.861 1813.52 527.519C1810.87 530.176 1807.26 531.668 1803.51 531.668C1799.75 531.668 1796.14 530.176 1793.49 527.519C1790.83 524.861 1789.34 521.258 1789.34 517.5C1789.34 513.742 1790.83 510.139 1793.49 507.481C1796.14 504.824 1799.75 503.332 1803.51 503.332Z" fill="white"/>
</g>
<path fill-rule="evenodd" clip-rule="evenodd" d="M101.492 494.801C101.271 494.801 101.06 494.79 100.901 494.783C100.771 494.794 100.641 494.801 100.511 494.801C95.8632 494.801 92.7594 492.407 90.0197 490.296C88.0567 488.784 86.2042 487.356 84.0332 486.963C82.9914 486.773 81.937 486.675 80.8807 486.673C79.0379 486.673 77.5787 486.984 76.5127 487.211C75.8594 487.349 75.2939 487.47 74.8552 487.47C74.4002 487.47 73.8444 487.36 73.6104 486.496C73.4419 485.844 73.2945 485.186 73.1684 484.523C72.8499 482.94 72.6192 481.973 72.0764 481.881C66.2524 480.9 62.8107 479.458 62.1249 477.709C62.0546 477.535 62.0128 477.349 62.0014 477.16C61.9888 476.909 62.0617 476.661 62.2063 476.465C62.3509 476.269 62.5569 476.138 62.7847 476.097C67.4094 475.265 71.5239 472.602 75.0112 468.175C76.7109 466.033 78.1226 463.638 79.2037 461.063C79.8732 459.575 80.0064 458.293 79.6002 457.245C78.8494 455.318 76.3632 454.458 74.7187 453.888C74.3463 453.765 73.9778 453.629 73.6137 453.48C72.1577 452.853 69.7592 451.529 70.0777 449.698C70.3117 448.362 71.9302 447.431 73.2399 447.431C73.6039 447.431 73.9257 447.502 74.1954 447.644C75.6774 448.398 77.0067 448.78 78.1507 448.78C79.5742 448.78 80.2632 448.189 80.4257 448.023C80.3839 447.176 80.3384 446.329 80.2892 445.483C79.9544 439.689 79.5384 432.485 81.2317 428.349C86.2887 415.978 97.0267 415.018 100.195 415.018C100.72 415.012 101.244 415.006 101.768 415C104.947 415 115.708 415.963 120.774 428.341C122.464 432.478 122.048 439.693 121.714 445.49L121.697 445.766C121.653 446.518 121.612 447.27 121.574 448.023C121.73 448.178 122.36 448.72 123.638 448.773C124.73 448.727 125.984 448.348 127.365 447.64C127.75 447.459 128.165 447.37 128.584 447.378C129.072 447.378 129.562 447.484 129.975 447.668L129.998 447.679C131.168 448.132 131.935 449.039 131.951 449.988C131.967 450.874 131.363 452.202 128.386 453.48C128.022 453.63 127.653 453.767 127.281 453.891C125.636 454.458 123.153 455.318 122.403 457.245C121.993 458.29 122.13 459.575 122.802 461.059L122.822 461.109C123.03 461.64 128.038 474.089 139.218 476.094C139.445 476.135 139.651 476.267 139.794 476.463C139.938 476.659 140.011 476.906 139.998 477.156C139.987 477.348 139.945 477.536 139.875 477.712C139.195 479.451 135.754 480.893 129.93 481.874C129.38 481.966 129.15 482.929 128.834 484.505C128.704 485.157 128.574 485.794 128.392 486.464C128.22 487.098 127.843 487.406 127.239 487.406H127.148C126.59 487.384 126.035 487.307 125.49 487.176C124.052 486.848 122.588 486.68 121.119 486.673C120.095 486.673 119.039 486.768 117.966 486.963C115.802 487.353 113.949 488.78 111.986 490.292C109.243 492.407 106.136 494.801 101.492 494.801Z" fill="white"/>
<path d="M1505.5 31.5L1521.25 42L1537 31.5M1484.5 47.25H1491.5M1477.5 36.75H1491.5" stroke="white" stroke-width="7" stroke-linecap="round" stroke-linejoin="round"/>
<path d="M1491.5 26.25V24.5C1491.5 22.6435 1492.24 20.863 1493.55 19.5503C1494.86 18.2375 1496.64 17.5 1498.5 17.5H1544C1545.86 17.5 1547.64 18.2375 1548.95 19.5503C1550.26 20.863 1551 22.6435 1551 24.5V59.5C1551 61.3565 1550.26 63.137 1548.95 64.4497C1547.64 65.7625 1545.86 66.5 1544 66.5H1498.5C1496.64 66.5 1494.86 65.7625 1493.55 64.4497C1492.24 63.137 1491.5 61.3565 1491.5 59.5V57.75" stroke="white" stroke-width="7" stroke-linecap="round"/>
<g clip-path="url(#clip1_63_731)">
<path d="M234 560.5C234 541.999 219.001 527 200.5 527C181.999 527 167 541.998 167 560.5C167 577.221 179.251 591.08 195.266 593.593V570.184H186.76V560.5H195.266V553.12C195.266 544.724 200.267 540.086 207.919 540.086C211.584 540.086 215.418 540.74 215.418 540.74V548.984H211.194C207.032 548.984 205.734 551.567 205.734 554.216V560.5H215.025L213.54 570.184H205.734V593.593C221.749 591.08 234 577.221 234 560.5Z" fill="white"/>
</g>
<path d="M666 17H604.667C600.45 17 597.038 20.45 597.038 24.6667L597 93.6667L612.333 78.3333H666C670.217 78.3333 673.667 74.8833 673.667 70.6667V24.6667C673.667 20.45 670.217 17 666 17ZM654.5 63H616.167C614.058 63 612.333 61.275 612.333 59.1667C612.333 57.0583 614.058 55.3333 616.167 55.3333H654.5C656.608 55.3333 658.333 57.0583 658.333 59.1667C658.333 61.275 656.608 63 654.5 63ZM654.5 51.5H616.167C614.058 51.5 612.333 49.775 612.333 47.6667C612.333 45.5583 614.058 43.8333 616.167 43.8333H654.5C656.608 43.8333 658.333 45.5583 658.333 47.6667C658.333 49.775 656.608 51.5 654.5 51.5ZM654.5 40H616.167C614.058 40 612.333 38.275 612.333 36.1667C612.333 34.0583 614.058 32.3333 616.167 32.3333H654.5C656.608 32.3333 658.333 34.0583 658.333 36.1667C658.333 38.275 656.608 40 654.5 40Z" fill="white"/>
<path d="M1155.38 550.154H1104.62C1100.3 550.154 1097 553.454 1097 557.769V588.231C1097 592.546 1100.3 595.846 1104.62 595.846H1155.38C1159.7 595.846 1163 592.546 1163 588.231V557.769C1163 553.454 1159.7 550.154 1155.38 550.154ZM1157.42 589.246L1137.62 575.031L1130 580.108L1122.13 575.031L1102.58 589.246L1118.58 572.746L1099.03 557.515L1130 574.269L1160.72 557.769L1141.42 573L1157.42 589.246Z" fill="white"/>
<path d="M93.4755 101.802C90.264 103.223 86.8584 104.156 83.3713 104.571C87.0454 102.371 89.7944 98.9102 91.1062 94.8334C87.6554 96.8871 83.8721 98.3263 79.9331 99.1048C77.2844 96.2709 73.7736 94.3914 69.9465 93.7585C66.1194 93.1257 62.1905 93.775 58.7705 95.6054C55.3505 97.4359 52.631 100.345 51.0349 103.88C49.4388 107.416 49.0555 111.38 49.9445 115.155C42.9458 114.805 36.0989 112.987 29.8486 109.819C23.5983 106.65 18.0842 102.203 13.6644 96.765C12.1002 99.4518 11.2781 102.506 11.2825 105.615C11.2825 111.717 14.3925 117.108 19.11 120.264C16.3157 120.176 13.583 119.422 11.1394 118.063V118.278C11.1393 122.343 12.5452 126.282 15.1185 129.429C17.6919 132.575 21.2744 134.734 25.2584 135.541C22.6646 136.244 19.9445 136.348 17.3046 135.844C18.4279 139.342 20.6175 142.402 23.5666 144.594C26.5158 146.787 30.0768 148.001 33.7508 148.069C30.0995 150.937 25.9186 153.056 21.4474 154.307C16.9761 155.558 12.3021 155.915 7.69281 155.358C15.738 160.531 25.1031 163.278 34.6682 163.269C67.0471 163.269 84.7474 136.45 84.7474 113.19C84.7474 112.433 84.7306 111.667 84.6969 110.913C88.141 108.424 91.1137 105.336 93.4755 101.802Z" fill="white"/>
<path fill-rule="evenodd" clip-rule="evenodd" d="M1325.06 29.4111C1325.92 29.0471 1326.87 28.9215 1327.8 29.0475C1328.73 29.1735 1329.61 29.5465 1330.35 30.1275C1331.08 30.7086 1331.65 31.4765 1331.99 32.3514C1332.33 33.2263 1332.43 34.1762 1332.28 35.1021L1324.34 83.2516C1323.57 87.8961 1318.47 90.5596 1314.21 88.2461C1310.65 86.3106 1305.36 83.3286 1300.6 80.2171C1298.22 78.6596 1290.93 73.6721 1291.82 70.1231C1292.59 67.0886 1304.84 55.6856 1311.84 48.9061C1314.59 46.2426 1313.34 44.7061 1310.09 47.1561C1302.03 53.2391 1289.1 62.4896 1284.82 65.0936C1281.05 67.3896 1279.08 67.7816 1276.73 67.3896C1272.44 66.6756 1268.46 65.5696 1265.21 64.2221C1260.82 62.4021 1261.04 56.3681 1265.21 54.6111L1325.06 29.4111Z" fill="white"/>
<defs>
<clipPath id="clip0_63_731">
<rect width="85" height="85" fill="white" transform="translate(1761 475)"/>
</clipPath>
<clipPath id="clip1_63_731">
<rect width="67" height="67" fill="white" transform="translate(167 527)"/>
</clipPath>
</defs>
</svg>
