<svg width="23" height="35" viewBox="0 0 23 35" fill="none" xmlns="http://www.w3.org/2000/svg">
<path fill-rule="evenodd" clip-rule="evenodd" d="M3.21749 0.0345845C2.28815 0.197277 1.65654 0.510834 1.06904 1.1012C0.593423 1.57912 0.291954 2.14428 0.118137 2.8838C0.0333415 3.24467 0.0149273 5.43685 0.0041149 16.4679C-0.00519031 25.9679 -0.00217599 26.6518 0.0501494 26.8734C0.288579 27.883 0.808851 28.7051 1.55081 29.2448C1.82495 29.4442 2.34703 29.7118 2.60449 29.7848L2.7615 29.8294L2.74135 32.1704L2.7212 34.5115L2.79761 34.6367C2.91163 34.8235 3.11533 34.9493 3.30701 34.9512C3.39291 34.9521 3.50746 34.9413 3.56152 34.9274C3.62931 34.9099 3.99287 34.5816 4.73332 33.8693L5.80686 32.8365L6.87942 33.8705C7.60047 34.5657 7.99195 34.9205 8.07383 34.9531C8.43152 35.0958 8.81959 34.9009 8.91539 34.5304C8.93902 34.439 9.0534 30.7596 9.05042 30.1866L9.04963 30.0366L15.8261 30.0285L22.6027 30.0204L22.7179 29.9441C22.7813 29.9022 22.8687 29.8179 22.9121 29.7567L22.9911 29.6455L22.9988 18.9846C23.0031 13.1211 22.9957 6.57317 22.9824 4.43355C22.9588 0.621942 22.957 0.541165 22.8928 0.436003C22.8567 0.376954 22.7706 0.284443 22.7014 0.230423L22.5755 0.132188L20.7683 0.110174C19.7743 0.0980608 16.4029 0.0722848 13.2763 0.0528654C10.1497 0.0334776 6.66271 0.0117491 5.52741 0.00456966C3.88278 -0.00577259 3.41329 0.000300087 3.21749 0.0345845ZM3.44685 1.22654C3.16756 1.26797 2.71144 1.41687 2.4736 1.54424C2.36915 1.60019 2.16541 1.76079 2.02082 1.90116C1.59472 2.31481 1.36893 2.81007 1.32051 3.43728C1.29934 3.71156 1.30521 3.80957 1.35422 4.00025C1.56215 4.80894 2.21469 5.3383 3.26123 5.54726C3.50785 5.5965 4.23887 5.60144 12.6128 5.61067L21.6969 5.6207V3.47372V1.32673L17.9371 1.30532C14.2774 1.28448 8.41144 1.24045 5.23253 1.21C4.26531 1.20073 3.57784 1.20709 3.44685 1.22654ZM5.10147 2.75959C4.61131 3.00566 4.60636 3.61114 5.09252 3.85179C5.21185 3.91084 5.38171 3.91208 12.437 3.90407L19.6593 3.89588L19.7832 3.79916C20.0015 3.62856 20.0422 3.55228 20.0422 3.31406C20.0422 3.04785 19.942 2.8794 19.7228 2.77693L19.5792 2.70984L12.3895 2.71003C5.9393 2.71022 5.18964 2.71532 5.10147 2.75959ZM1.27339 10.9265C1.2614 13.6148 1.2516 18.2153 1.2516 21.15V26.4858L1.33263 26.7941C1.64078 27.9668 2.49791 28.6584 3.81915 28.8006C4.03307 28.8236 6.92431 28.8343 12.942 28.8343H21.7516L21.7555 17.8319L21.7593 6.82957L12.7587 6.83315C3.37168 6.83691 3.55828 6.83928 2.89836 6.70806C2.4028 6.60951 1.88999 6.41057 1.49455 6.16346L1.29518 6.03888L1.27339 10.9265Z" fill="black"/>
</svg>
