<svg width="20" height="30" viewBox="0 0 20 30" fill="none" xmlns="http://www.w3.org/2000/svg">
<path fill-rule="evenodd" clip-rule="evenodd" d="M17.9685 0.0196767C17.1007 0.335828 9.26232 3.33897 9.21282 3.37427C9.01845 3.51275 8.95292 3.8269 9.07705 4.02514C9.1588 4.15572 9.20747 4.19118 9.64202 4.437C9.83873 4.54829 10.0105 4.64942 10.0237 4.66174C10.0369 4.67405 7.99647 8.15021 5.48949 12.3865L0.931333 20.0889L0.930303 20.2587C0.928386 20.5725 0.852045 20.5179 2.9197 21.6816L4.75324 22.7135L4.62957 22.8219C4.56159 22.8814 4.33211 23.0436 4.11965 23.1823C3.50701 23.582 3.1581 23.9611 2.8447 24.5675C2.60544 25.0304 2.53451 25.3121 2.48861 25.9815C2.45422 26.4831 2.41244 26.672 2.2731 26.9558C2.02785 27.4555 1.80447 27.6952 1.24402 28.0599C0.988931 28.2259 0.759424 28.4026 0.612122 28.5464C0.383474 28.7698 0.118372 29.1208 0.0398568 29.3042C-0.0559405 29.5279 0.0257794 29.7897 0.233168 29.9236C0.326677 29.984 0.384934 30 0.511805 30C0.739223 30 0.839685 29.9333 1.0376 29.6508C1.27352 29.3142 1.42151 29.1772 1.8592 28.8906C2.44944 28.5041 2.79586 28.1504 3.09598 27.6276C3.379 27.1347 3.47514 26.792 3.53302 26.0694C3.58218 25.4562 3.64865 25.2218 3.88088 24.8426C4.09141 24.4988 4.30447 24.2944 4.77664 23.9832C5.04349 23.8074 5.27987 23.6242 5.43586 23.4723L5.67908 23.2356L7.20308 24.0949C8.04128 24.5676 8.76554 24.9618 8.81258 24.971C8.9846 25.0046 9.1887 24.9333 9.30241 24.7999C9.33969 24.7561 11.4105 21.2712 13.9042 17.0555L18.4383 9.39072L18.8488 9.62327C19.3137 9.88654 19.4463 9.93147 19.6224 9.88523C19.8562 9.82378 20.0001 9.63545 20 9.39089C20 9.28476 18.7521 1.21049 18.6232 0.482107C18.5987 0.344149 18.5699 0.283476 18.4828 0.187008C18.3445 0.0336372 18.1256 -0.0375617 17.9685 0.0196767ZM15.379 2.09743C14.1357 2.57245 12.5817 3.16567 11.9255 3.41567L10.7324 3.87023L14.7558 6.13709C16.9686 7.38388 18.7845 8.39873 18.7911 8.39234C18.8012 8.38246 17.7395 1.52558 17.6937 1.30494C17.685 1.26273 17.6692 1.22942 17.6586 1.23095C17.6481 1.23249 16.6222 1.62241 15.379 2.09743ZM10.9191 5.25579C10.773 5.48262 8.75584 8.91662 8.76402 8.92457C8.7799 8.9401 14.7629 7.35901 14.7634 7.33918C14.7638 7.32296 11.0012 5.19297 10.9722 5.19297C10.9653 5.19297 10.9413 5.22122 10.9191 5.25579ZM12.0157 9.13583L7.99441 10.199L6.65654 12.4599C5.92072 13.7033 5.32253 14.7235 5.32722 14.727C5.35014 14.7438 15.6428 12.0082 15.6826 11.9747C15.7331 11.9322 17.5112 8.9301 17.5098 8.88962C17.5089 8.86209 16.1056 8.06767 16.0633 8.07077C16.0489 8.07181 14.2275 8.5511 12.0157 9.13583ZM9.71982 14.6297C6.89056 15.3784 4.57086 15.9957 4.5649 16.0016C4.55895 16.0076 4.01384 16.9256 3.35356 18.0418L2.15306 20.0711L2.87595 20.4779C3.27353 20.7016 3.61623 20.8844 3.63749 20.8841C3.68568 20.8834 11.6704 18.7757 11.6841 18.7601C11.6895 18.7538 12.3992 17.5551 13.261 16.0962C14.1229 14.6373 14.8532 13.4028 14.8841 13.3529C14.9245 13.2874 14.9296 13.2631 14.9021 13.2654C14.8811 13.2672 12.5491 13.8811 9.71982 14.6297ZM7.92929 20.8177C6.287 21.252 4.93788 21.6126 4.93127 21.619C4.92469 21.6255 5.09668 21.7287 5.31349 21.8484C5.53029 21.9681 5.76563 22.1005 5.83645 22.1427C6.46314 22.516 8.71157 23.7582 8.72908 23.7409C8.75941 23.7109 10.9314 20.0389 10.9224 20.0328C10.9185 20.0302 9.5716 20.3834 7.92929 20.8177Z" fill="black"/>
</svg>
