<svg width="10" height="40" viewBox="0 0 10 40" fill="none" xmlns="http://www.w3.org/2000/svg">
<path fill-rule="evenodd" clip-rule="evenodd" d="M0.585228 0.0888335C0.440706 0.125408 0.242544 0.339544 0.144976 0.564455C0.017485 0.858418 -0.0203961 5.43631 0.00984526 16.8327L0.0521842 32.6918L2.24532 36.2796C4.47124 39.9213 4.73896 40.2297 5.38676 39.8993C5.53478 39.8237 6.6335 38.1367 7.82803 36.1506L10 32.5394V16.5668C10 0.796499 9.99602 0.590406 9.68167 0.290677C9.3783 0.00141901 9.16422 -0.0120882 5.10567 0.00475736C2.76388 0.0144701 0.72975 0.0522589 0.585228 0.0888335ZM1.72342 19.185V31.5536H4.9863H8.24918V19.185V6.81643H4.9863H1.72342V19.185ZM4.49941 8.70116C4.20369 8.90725 4.18856 9.18027 4.14543 15.0771L4.10055 21.2377L4.4948 21.6137C4.91229 22.0116 5.29779 21.9949 5.66275 21.563C5.8146 21.3834 5.86171 19.8774 5.86171 15.2102C5.86171 9.29516 5.8512 9.08284 5.54338 8.78934C5.16663 8.43011 4.91834 8.40917 4.49941 8.70116ZM2.85699 34.0956C3.14301 34.5756 3.74609 35.5694 4.19684 36.304L5.0167 37.64L6.31453 35.4939C7.02839 34.3137 7.61252 33.32 7.61252 33.2855C7.61252 33.251 6.42547 33.223 4.97468 33.223H2.33668L2.85699 34.0956Z" fill="black"/>
</svg>
