<svg width="19" height="19" viewBox="0 0 19 19" fill="none" xmlns="http://www.w3.org/2000/svg">
<path d="M0.960719 7.57283C3.17591 12.3997 7.112 16.2254 11.9983 18.3007L12.7829 18.6506C13.6518 19.0377 14.6293 19.1056 15.5433 18.8422C16.4572 18.5788 17.249 18.0011 17.779 17.2109L18.8047 15.6823C18.9653 15.4425 19.0302 15.1514 18.9869 14.8661C18.9435 14.5808 18.795 14.3221 18.5705 14.141L15.0952 11.3354C14.9741 11.2378 14.8346 11.1657 14.685 11.1233C14.5354 11.081 14.3788 11.0693 14.2246 11.089C14.0704 11.1088 13.9218 11.1595 13.7876 11.2381C13.6535 11.3168 13.5366 11.4218 13.444 11.5467L12.3687 12.998C9.60824 11.6338 7.37386 9.39769 6.01104 6.63535L7.46026 5.55933C7.58516 5.46669 7.69005 5.34975 7.76866 5.21553C7.84726 5.08132 7.89794 4.93259 7.91766 4.77828C7.93738 4.62397 7.92574 4.46727 7.88342 4.31758C7.8411 4.16789 7.76899 4.0283 7.67141 3.90719L4.8676 0.429747C4.68656 0.205137 4.42802 0.0565032 4.14292 0.013124C3.85781 -0.0302552 3.56681 0.0347654 3.32723 0.195377L1.78917 1.22753C0.994641 1.76067 0.415059 2.55872 0.153673 3.47952C-0.107714 4.40032 -0.0339305 5.38406 0.361879 6.25551L0.960719 7.57283Z" fill="white"/>
</svg>
