<svg width="24" height="24" viewBox="0 0 24 24" fill="none" xmlns="http://www.w3.org/2000/svg">
<path d="M23.1159 23.2415C22.6229 23.6684 21.8838 23.6418 21.4227 23.1807L14.827 16.585C13.1945 17.8043 11.2126 18.4653 9.175 18.47H9.173L9.065 18.471C6.66081 18.471 4.35509 17.5159 2.65508 15.8159C0.95506 14.1159 0 11.8102 0 9.406L0.001 9.292V9.298C0.001 6.83202 0.980608 4.46703 2.72432 2.72332C4.46803 0.979608 6.83302 0 9.299 0C11.765 0 14.13 0.979608 15.8737 2.72332C17.6174 4.46703 18.597 6.83202 18.597 9.298C18.5712 11.3443 17.9054 13.3313 16.693 14.98L16.712 14.953L23.1812 21.4222C23.6917 21.9327 23.6616 22.769 23.1159 23.2415ZM9.299 2.512C7.51037 2.40905 5.75405 3.02055 4.41612 4.21209C3.07819 5.40362 2.26815 7.07767 2.16407 8.86624C2.05999 10.6548 2.67039 12.4115 3.86108 13.7502C5.05177 15.0889 6.72531 15.9 8.51381 16.0052C10.3023 16.1104 12.0594 15.5011 13.3988 14.3112C14.7383 13.1214 15.5504 11.4484 15.6567 9.65993C15.7631 7.87149 15.1549 6.11402 13.9659 4.77384C12.7769 3.43366 11.1044 2.62046 9.316 2.513L9.299 2.512Z" fill="black"/>
</svg>
