<svg width="21" height="30" viewBox="0 0 21 30" fill="none" xmlns="http://www.w3.org/2000/svg">
<path fill-rule="evenodd" clip-rule="evenodd" d="M5.96743 0.00629142C5.27615 0.131652 4.907 0.486823 4.42749 1.48802C4.02275 2.33301 3.78064 3.24049 3.71118 4.17279C3.60615 5.58229 4.07151 7.16239 4.96445 8.42826L5.13602 8.67143L5.13666 9.73179C5.13703 10.3405 5.14881 10.8436 5.16426 10.913C5.17909 10.9794 5.20229 11.2977 5.21583 11.6202C5.24212 12.2467 5.30125 12.6781 5.41787 13.0941C5.61065 13.7817 5.93466 14.4236 6.38381 15.0078C6.56691 15.2459 7.028 15.7257 7.20048 15.8575L7.28161 15.9196V16.3443V16.7689L7.03352 16.769C6.50389 16.769 5.84299 16.8667 5.26636 17.0302C2.6563 17.7702 0.658858 19.9832 0.135494 22.7149C0.00895791 23.3753 0 23.5396 0 25.2003C0 26.6561 0.00356699 26.7791 0.0503946 26.9337C0.223732 27.5061 0.575019 27.9078 1.08621 28.1181C1.29613 28.2044 1.37447 28.2168 2.71855 28.3763C4.44741 28.5815 4.58924 28.6139 5.72605 29.0632C6.30351 29.2914 6.61092 29.3981 7.05364 29.5238C9.47628 30.212 12.0547 30.153 14.4425 29.3547C14.6269 29.2931 14.995 29.1558 15.2605 29.0496C16.3164 28.6273 16.4945 28.5869 18.1705 28.3896C19.5422 28.2282 19.7093 28.2022 19.9102 28.1196C20.4253 27.9076 20.7758 27.5077 20.9496 26.9337C20.9964 26.7791 21 26.6561 21 25.2003C21 23.5396 20.991 23.3753 20.8645 22.7149C20.3411 19.9832 18.3437 17.7702 15.7336 17.0302C15.157 16.8667 14.4961 16.769 13.9665 16.769L13.7184 16.7689V16.3443V15.9196L13.7995 15.8575C13.9713 15.7262 14.4328 15.2462 14.6167 15.0078C15.1388 14.3306 15.5176 13.5051 15.6744 12.7034C15.7716 12.2064 15.8377 11.2069 15.8606 9.89073L15.8776 8.90615L16.0061 8.68161C16.7254 7.42484 16.8871 5.17237 16.3863 3.38695C16.1775 2.64244 15.9058 2.16502 15.4134 1.67739C15.1167 1.38354 14.8659 1.19636 14.4962 0.992786C13.9286 0.680299 13.4884 0.56301 12.7126 0.517608C11.6215 0.453735 10.4909 0.678247 9.20374 1.21439C8.84052 1.36571 8.78535 1.38129 8.66042 1.36795C8.58393 1.3598 8.48078 1.33154 8.43119 1.30519C8.38157 1.27881 8.03324 1.0299 7.65709 0.751994C6.9414 0.22326 6.79721 0.132928 6.55632 0.0624819C6.40039 0.0168861 6.07844 -0.0138439 5.96743 0.00629142ZM5.88904 1.08911C5.76854 1.15121 5.72461 1.19738 5.60531 1.38726C5.33252 1.82153 5.05786 2.45568 4.90856 2.99609C4.58755 4.15789 4.60938 5.21151 4.97716 6.30409C5.09627 6.65793 5.39711 7.28049 5.60941 7.6125L5.7931 7.89972L6.11494 7.8841C6.86343 7.8478 7.96914 7.48519 8.76376 7.01548C9.36013 6.66297 9.82602 6.29302 10.327 5.77411C10.9398 5.1394 11.3618 4.52435 11.7823 3.65279C12.0219 3.1562 12.0515 3.10803 12.1628 3.03367C12.269 2.96275 12.3032 2.95421 12.4464 2.96297C12.5914 2.97185 12.6297 2.98799 12.7951 3.11002C13.4194 3.5707 14.0639 4.2051 14.4569 4.74595C14.9194 5.38232 15.1883 5.94853 15.4227 6.77954L15.5347 7.17679L15.5788 6.93208C15.695 6.28781 15.7284 5.66217 15.679 5.05644C15.5908 3.97493 15.3438 3.14735 14.9614 2.65199C14.6033 2.18818 13.926 1.74944 13.3784 1.62663C12.2856 1.38149 11.027 1.5517 9.62385 2.13435C9.3903 2.23131 9.13935 2.32588 9.06618 2.34452C8.8822 2.39133 8.49443 2.38493 8.29605 2.33176C8.03611 2.26212 7.878 2.16472 7.14751 1.62406C6.77136 1.34568 6.41533 1.09518 6.35632 1.06739C6.20415 0.995698 6.05701 1.00255 5.88904 1.08911ZM12.4724 4.49207C11.7834 5.8194 10.6453 7.05167 9.42763 7.78858L9.25373 7.89384H9.36814C9.51163 7.89384 9.63433 7.94717 9.72721 8.0499C9.83393 8.16791 9.85632 8.25661 9.85632 8.56127V8.83682H10.5H11.1437L11.1437 8.55254C11.1438 8.22377 11.1776 8.12761 11.3406 7.99288L11.4436 7.9077L13.0641 7.90013L14.6846 7.89259L14.6684 7.81693C14.3551 6.36127 13.9859 5.61421 13.157 4.75866C12.9716 4.56737 12.7714 4.37198 12.712 4.3245L12.6042 4.23819L12.4724 4.49207ZM6.22477 8.91275L6.12001 8.92387L6.1376 9.42562C6.14726 9.70158 6.15517 10.0127 6.15517 10.117V10.3068H7.52299H8.89081V9.59952V8.89229L7.61015 8.89695C6.90578 8.89953 6.28238 8.90662 6.22477 8.91275ZM12.1092 9.59952V10.3068H13.4734H14.8375L14.8546 10.1781C14.864 10.1073 14.8716 9.78906 14.8716 9.47083V8.89229H13.4904H12.1092V9.59952ZM9.85632 10.4052C9.85632 10.9918 9.84862 11.0307 9.70449 11.1717C9.66263 11.2127 9.59437 11.2595 9.55285 11.2757C9.50249 11.2954 8.92774 11.3052 7.82667 11.3052H6.17601L6.19489 11.6727C6.25985 12.9358 6.66413 13.9032 7.4812 14.751C8.11456 15.408 8.96177 15.8446 9.89655 15.9956C10.1725 16.0401 10.8275 16.0401 11.1034 15.9956C12.0382 15.8446 12.8854 15.408 13.5188 14.751C14.3353 13.9038 14.7403 12.9351 14.8058 11.6727L14.8249 11.3052H13.1712C11.3742 11.3052 11.4171 11.3087 11.2728 11.1491C11.1562 11.0202 11.1437 10.9465 11.1437 10.3882V9.863H10.5H9.85632V10.4052ZM8.28124 17.1364C8.29647 17.8113 8.32144 17.9307 8.53799 18.3637C8.69534 18.6783 9.06733 19.0821 9.36825 19.265C9.86319 19.5658 10.4853 19.6571 11.0508 19.512C11.7896 19.3224 12.4262 18.6821 12.6476 17.9061C12.6979 17.7296 12.7088 17.6106 12.7192 17.1226C12.7259 16.806 12.7237 16.5471 12.7143 16.5471C12.7048 16.5471 12.6523 16.5706 12.5976 16.5994C12.4468 16.6788 12.0458 16.8202 11.7605 16.8946C10.9926 17.0949 10.0074 17.0949 9.23946 16.8946C8.95415 16.8202 8.55319 16.6788 8.40241 16.5994C8.34767 16.5706 8.29503 16.5471 8.28543 16.5471C8.27582 16.5471 8.27395 16.8123 8.28124 17.1364ZM6.75862 17.7956C5.92664 17.8512 5.13685 18.0733 4.39847 18.4594C3.72708 18.8104 3.30432 19.1279 2.77519 19.6783C1.77706 20.7166 1.17997 22.0006 1.01803 23.4566C0.984881 23.7545 0.97831 24.1107 0.984559 25.2696L0.992337 26.7118L1.06606 26.8415C1.16216 27.0106 1.30833 27.133 1.4751 27.1842C1.54885 27.2068 2.09195 27.2816 2.68199 27.3503C4.57084 27.5704 4.84885 27.6318 5.98084 28.0781C6.29061 28.2002 6.67682 28.3443 6.83908 28.3983C8.907 29.086 11.1711 29.1706 13.276 28.639C13.8332 28.4982 14.2718 28.3527 14.9655 28.0786C16.0894 27.6345 16.2818 27.5922 18.2107 27.3645C18.8598 27.2879 19.4511 27.2068 19.5249 27.1842C19.6917 27.133 19.8378 27.0106 19.9339 26.8415L20.0077 26.7118L20.0154 25.2696C20.0217 24.1107 20.0151 23.7545 19.982 23.4566C19.82 22.0006 19.2229 20.7166 18.2248 19.6783C17.6957 19.1279 17.2729 18.8104 16.6015 18.4594C15.8053 18.0431 15.0019 17.8326 14.0131 17.7813L13.6776 17.7639L13.6431 17.9518C13.4232 19.1506 12.4617 20.1897 11.2873 20.4976C11.0533 20.559 9.9489 20.5593 9.71267 20.4981C9.15941 20.3548 8.65876 20.0557 8.23211 19.6138C7.77217 19.1375 7.46873 18.5616 7.35719 17.9536L7.32302 17.7674L7.18833 17.7717C7.11425 17.774 6.92088 17.7848 6.75862 17.7956ZM11.043 22.5031C10.8818 22.5936 9.19256 23.8954 9.10979 23.9928C8.97167 24.1555 8.96086 24.4288 9.08587 24.5981C9.15343 24.6896 10.8885 26.0293 11.0438 26.1099C11.0914 26.1345 11.1921 26.1548 11.2678 26.1549C11.5297 26.1553 11.7342 25.9344 11.7333 25.6521C11.7325 25.4111 11.6769 25.35 10.9614 24.8041L10.3097 24.3069L10.7468 23.9739C11.6281 23.3026 11.6234 23.3065 11.6832 23.1809C11.7622 23.0148 11.7449 22.8025 11.6409 22.6615C11.5029 22.4743 11.2252 22.4008 11.043 22.5031ZM13.9414 22.5084C13.8737 22.5403 13.803 22.6032 13.7629 22.6673C13.6659 22.8226 12.8333 25.506 12.8333 25.6634C12.8333 26.104 13.3514 26.3267 13.6524 26.0155C13.7468 25.9179 13.7245 25.9838 14.5268 23.4287C14.6766 22.9516 14.6794 22.8768 14.5548 22.6781C14.4247 22.4706 14.1713 22.4005 13.9414 22.5084ZM16.0785 22.4856C15.9052 22.5569 15.7773 22.7573 15.7773 22.9576C15.7773 23.2045 15.8227 23.2551 16.5234 23.79C16.8762 24.0593 17.1648 24.292 17.1648 24.3071C17.1648 24.3222 16.8992 24.5367 16.5747 24.7837C16.2502 25.0307 15.9564 25.2598 15.9218 25.2928C15.7182 25.4871 15.7314 25.8566 15.9489 26.0458C16.0465 26.1307 16.2169 26.1802 16.3289 26.1561C16.4605 26.1279 16.5371 26.0745 17.4913 25.3474C18.087 24.8934 18.4041 24.6342 18.4428 24.5694C18.5784 24.3425 18.5218 24.0757 18.2985 23.8888C18.0088 23.6462 16.5171 22.5274 16.4376 22.4931C16.3352 22.4488 16.1761 22.4455 16.0785 22.4856Z" fill="black"/>
</svg>
