<svg width="33" height="18" viewBox="0 0 33 18" fill="none" xmlns="http://www.w3.org/2000/svg">
<path fill-rule="evenodd" clip-rule="evenodd" d="M15.6745 0.0163602C11.2075 0.196581 6.96275 1.89264 3.49324 4.88352C2.38903 5.83539 0.853975 7.53043 0.174745 8.54788C0.00672783 8.79959 -0.0365391 8.99384 0.0295324 9.19999C0.11194 9.45703 1.08308 10.6931 1.85759 11.5268C3.56522 13.3648 5.36984 14.74 7.50631 15.8314C9.84957 17.0285 12.1431 17.6905 14.8164 17.9413C15.649 18.0194 17.3465 18.0196 18.1827 17.9417C20.9179 17.6868 23.3242 16.9786 25.6908 15.732C27.8075 14.6171 29.6157 13.2139 31.2418 11.4244C31.9666 10.6266 32.8867 9.45928 32.9714 9.22965C33.0182 9.10298 33.0058 8.8548 32.9468 8.73625C32.8747 8.59137 32.3409 7.87208 31.9477 7.3901C31.5048 6.84695 30.6978 5.98669 30.1132 5.43427C26.2005 1.73709 21.038 -0.200048 15.6745 0.0163602ZM15.4815 1.27128C11.2977 1.52836 7.4742 3.08691 4.28504 5.83522C3.76993 6.27914 2.74982 7.29941 2.31438 7.8062C1.78521 8.42205 1.35034 8.99282 1.37974 9.03288C2.24441 10.2114 3.47601 11.5104 4.64144 12.4733C9.04856 16.1144 14.7744 17.5276 20.3609 16.3531C24.091 15.569 27.542 13.5989 30.1957 10.7388C30.7611 10.1294 30.9784 9.87629 31.3624 9.37956L31.6479 9.01035L31.5477 8.86989C30.9142 7.98156 29.5316 6.51468 28.5456 5.68469C25.5112 3.13058 21.9455 1.64994 18.0012 1.30608C17.4329 1.25654 16.0355 1.23724 15.4815 1.27128ZM15.7735 2.39379C14.5973 2.54119 13.4888 3.00108 12.5589 3.72737C12.2115 3.99872 11.5821 4.64618 11.3264 4.99514C10.6043 5.98068 10.1631 7.11691 10.0286 8.33718C9.97412 8.83187 10.006 9.78132 10.0932 10.2585C10.3441 11.6311 10.9591 12.8278 11.9195 13.8118C13.3858 15.314 15.3922 15.995 17.4566 15.6912C19.3674 15.4099 21.0785 14.2252 22.1077 12.4711C22.5365 11.7402 22.8246 10.8883 22.9538 9.96966C23.0367 9.38058 23.0054 8.3015 22.8892 7.73868C22.7674 7.1495 22.6029 6.65511 22.3593 6.1471C21.9906 5.3778 21.6057 4.83031 21.0329 4.26012C20.0712 3.30281 18.9129 2.69001 17.6217 2.45546C17.1878 2.37663 16.179 2.34299 15.7735 2.39379ZM15.8725 3.63801C14.8206 3.78014 13.7937 4.25811 13.0105 4.97013C12.1467 5.7555 11.5653 6.77326 11.3146 7.93878C11.2651 8.16858 11.2421 8.42837 11.2293 8.89935C11.2141 9.457 11.2212 9.60233 11.2816 9.96637C11.662 12.2604 13.3997 14.0457 15.6411 14.4453C16.0701 14.5218 16.9699 14.5203 17.3819 14.4425C18.5019 14.2309 19.4606 13.7177 20.2458 12.9093C21.6567 11.4567 22.1513 9.34953 21.5419 7.38731C21.0354 5.75608 19.7655 4.43534 18.1769 3.88737C17.6302 3.6988 17.3005 3.64514 16.6151 3.63325C16.2702 3.62727 15.936 3.62941 15.8725 3.63801Z" fill="black"/>
</svg>
