<svg width="23" height="23" viewBox="0 0 23 23" fill="none" xmlns="http://www.w3.org/2000/svg">
<path d="M11.501 0C8.37787 0 7.98583 0.0136849 6.75924 0.0694593C5.53495 0.125579 4.69924 0.319352 3.96808 0.603744C3.21161 0.897451 2.57002 1.2904 1.93085 1.9298C1.29111 2.56907 0.89815 3.21065 0.60352 3.96677C0.31832 4.69816 0.124315 5.5342 0.0692299 6.75791C0.0143749 7.9846 0 8.37675 0 11.5C0 14.6233 0.0138 15.014 0.06946 16.2406C0.12581 17.4649 0.319585 18.3006 0.60375 19.0317C0.89769 19.7882 1.29065 20.4298 1.93005 21.0689C2.5691 21.7087 3.21069 22.1025 3.96658 22.3963C4.69833 22.6806 5.53414 22.8744 6.7582 22.9305C7.98491 22.9863 8.3766 23 11.4997 23C14.6232 23 15.0139 22.9863 16.2405 22.9305C17.4648 22.8744 18.3014 22.6806 19.0332 22.3963C19.7893 22.1025 20.43 21.7087 21.0689 21.0689C21.7087 20.4298 22.1015 19.7882 22.3962 19.0321C22.6789 18.3006 22.873 17.4646 22.9305 16.2408C22.9856 15.0142 23 14.6233 23 11.5C23 8.37675 22.9856 7.98483 22.9305 6.75814C22.873 5.53386 22.6789 4.69828 22.3962 3.96712C22.1015 3.21065 21.7087 2.56907 21.0689 1.9298C20.4293 1.29017 19.7895 0.897221 19.0325 0.603859C18.2994 0.319352 17.4632 0.125464 16.2389 0.0694593C15.0122 0.0136849 14.6217 0 11.4975 0H11.501ZM10.4694 2.07239C10.7756 2.07193 11.1173 2.07239 11.501 2.07239C14.5717 2.07239 14.9355 2.08343 16.1481 2.13852C17.2693 2.18981 17.8779 2.37714 18.2833 2.53457C18.82 2.74295 19.2026 2.99216 19.6049 3.39477C20.0074 3.79726 20.2564 4.18055 20.4654 4.71725C20.6228 5.12205 20.8104 5.73062 20.8615 6.85186C20.9165 8.06418 20.9285 8.42827 20.9285 11.4974C20.9285 14.5664 20.9165 14.9306 20.8615 16.1428C20.8102 17.2641 20.6228 17.8727 20.4654 18.2776C20.257 18.8143 20.0074 19.1964 19.6049 19.5987C19.2024 20.0012 18.8202 20.2503 18.2833 20.4588C17.8784 20.6169 17.2693 20.8038 16.1481 20.855C14.9357 20.9101 14.5717 20.9221 11.501 20.9221C8.43031 20.9221 8.06633 20.9101 6.85412 20.855C5.73286 20.8033 5.12428 20.616 4.71856 20.4585C4.18197 20.25 3.79856 20.0009 3.39606 19.5984C2.99356 19.196 2.74448 18.8136 2.53552 18.2767C2.37809 17.8717 2.19052 17.2632 2.13946 16.1419C2.08438 14.9296 2.07333 14.5655 2.07333 11.4945C2.07333 8.42355 2.08438 8.0613 2.13946 6.84899C2.19075 5.72775 2.37809 5.11917 2.53552 4.7138C2.74401 4.1771 2.99357 3.79381 3.39618 3.39132C3.79868 2.98882 4.18197 2.73962 4.71868 2.53078C5.12405 2.37266 5.73286 2.18578 6.85412 2.13426C7.91499 2.08631 8.32612 2.07193 10.4694 2.06952V2.07239ZM17.6397 3.98184C16.8779 3.98184 16.2597 4.59938 16.2597 5.36136C16.2597 6.12323 16.8779 6.74135 17.6397 6.74135C18.4016 6.74135 19.0197 6.12323 19.0197 5.36136C19.0197 4.59949 18.4016 3.98137 17.6397 3.98137V3.98184ZM11.501 5.59423C8.23964 5.59423 5.59532 8.23852 5.59532 11.5C5.59532 14.7615 8.23964 17.4045 11.501 17.4045C14.7626 17.4045 17.4059 14.7615 17.4059 11.5C17.4059 8.23863 14.7623 5.59423 11.5008 5.59423H11.501ZM11.501 7.66663C13.6181 7.66663 15.3344 9.38276 15.3344 11.5C15.3344 13.617 13.6181 15.3334 11.501 15.3334C9.38389 15.3334 7.66774 13.617 7.66774 11.5C7.66774 9.38276 9.38389 7.66663 11.501 7.66663Z" fill="white"/>
</svg>
