<svg width="26" height="21" viewBox="0 0 26 21" fill="none" xmlns="http://www.w3.org/2000/svg">
<path d="M23.3383 5.2278C23.3541 5.45575 23.3541 5.6835 23.3541 5.91348C23.3541 12.9197 17.9881 21 8.17659 21V20.996C5.27802 21 2.43952 20.1747 0 18.6187C0.421484 18.6692 0.845 18.6944 1.26953 18.6954C3.67191 18.6973 6.0052 17.8964 7.89445 16.4213C6.78132 16.4004 5.70259 16.0343 4.80907 15.3741C3.91556 14.7139 3.25193 13.7926 2.91098 12.7392C3.71069 12.8926 4.53456 12.8609 5.31944 12.6477C2.83075 12.148 1.04041 9.97464 1.04041 7.4506V7.38336C1.78228 7.79418 2.6126 8.02179 3.46145 8.04703C1.11719 6.48992 0.395078 3.39044 1.81045 0.967348C3.14963 2.60535 4.82048 3.94503 6.71446 4.89935C8.60845 5.85368 10.6832 6.40131 12.804 6.50668C12.5926 5.60189 12.6239 4.65778 12.8947 3.76878C13.1656 2.87978 13.6665 2.07703 14.3473 1.44082C16.4958 -0.566745 19.8748 -0.463772 21.8942 1.67079C23.0889 1.43633 24.2345 1.00096 25.2817 0.383432C24.8835 1.61117 24.0502 2.65335 22.9369 3.31614C23.9943 3.19221 25.0269 2.91076 26 2.48125C25.2842 3.54684 24.3828 4.47693 23.3383 5.2278Z" fill="white"/>
</svg>
